<?xml version="1.0" encoding="UTF-8"?>
<svg id="Camada_7" data-name="Camada 7" xmlns="http://www.w3.org/2000/svg" xmlns:xlink="http://www.w3.org/1999/xlink" viewBox="0 0 968.67 1080">
  <defs>
    <style>
      .cls-1, .cls-2, .cls-3 {
        fill: none;
      }

      .cls-4 {
        fill: url(#Gradiente_sem_nome_54);
      }

      .cls-5 {
        fill: #b6492e;
      }

      .cls-6 {
        fill: #ac4029;
      }

      .cls-7 {
        isolation: isolate;
      }

      .cls-8 {
        clip-path: url(#clippath-1);
      }

      .cls-2 {
        stroke: #c4c4c4;
        stroke-width: 3px;
      }

      .cls-2, .cls-3 {
        stroke-miterlimit: 10;
      }

      .cls-9 {
        fill: #fff;
      }

      .cls-3 {
        stroke: #000;
      }

      .cls-10 {
        fill: #e1e1e1;
      }

      .cls-11 {
        fill: #26221f;
      }

      .cls-12 {
        clip-path: url(#clippath);
      }
    </style>
    <linearGradient id="Gradiente_sem_nome_54" data-name="Gradiente sem nome 54" x1="117.74" y1="291.66" x2="249.44" y2="464.83" gradientUnits="userSpaceOnUse">
      <stop offset=".09" stop-color="#d8c4a8"/>
      <stop offset=".64" stop-color="#6f7f5f"/>
      <stop offset="1" stop-color="#b6492e"/>
    </linearGradient>
    <clipPath id="clippath">
      <rect class="cls-1" x="571.32" y="813.62" width="86.87" height="93.56"/>
    </clipPath>
    <clipPath id="clippath-1">
      <rect class="cls-1" x="296.84" y="813.62" width="97.61" height="93.56"/>
    </clipPath>
  </defs>
  <rect class="cls-5" x="37.02" y="50.84" width="881.93" height="56.63" rx="12" ry="12"/>
  <rect class="cls-10" x="37.02" y="126.75" width="881.93" height="451.86" rx="11.08" ry="11.08"/>
  <g>
    <path class="cls-9" d="M403.08,82.43c.98.5,2.5,1.01,4.06,1.01,1.68,0,2.57-.7,2.57-1.75s-.77-1.58-2.71-2.28c-2.69-.94-4.44-2.42-4.44-4.78,0-2.76,2.3-4.87,6.12-4.87,1.82,0,3.17.38,4.13.82l-.82,2.95c-.65-.31-1.8-.77-3.38-.77s-2.35.72-2.35,1.56c0,1.03.91,1.49,3,2.28,2.86,1.06,4.2,2.54,4.2,4.83,0,2.71-2.09,5.02-6.53,5.02-1.85,0-3.67-.48-4.58-.98l.74-3.02Z"/>
    <path class="cls-9" d="M429.14,79.36h-5.95v3.84h6.65v3h-10.32v-16.18h9.98v3h-6.31v3.36h5.95v2.98Z"/>
    <path class="cls-9" d="M435.93,70.02h3.67v13.11h6.43v3.07h-10.1v-16.18Z"/>
    <path class="cls-9" d="M465.69,77.94c0,5.3-3.22,8.52-7.94,8.52s-7.61-3.62-7.61-8.23c0-4.85,3.1-8.47,7.87-8.47s7.68,3.72,7.68,8.18ZM454,78.16c0,3.17,1.49,5.4,3.94,5.4s3.89-2.35,3.89-5.5c0-2.9-1.39-5.4-3.91-5.4s-3.91,2.35-3.91,5.5Z"/>
    <path class="cls-9" d="M470.49,87.16l5.14-17.4h2.42l-5.14,17.4h-2.42Z"/>
    <path class="cls-9" d="M483.24,70.02h3.67v13.11h6.43v3.07h-10.1v-16.18Z"/>
    <path class="cls-9" d="M513,77.94c0,5.3-3.22,8.52-7.94,8.52s-7.61-3.62-7.61-8.23c0-4.85,3.1-8.47,7.87-8.47s7.68,3.72,7.68,8.18ZM501.31,78.16c0,3.17,1.49,5.4,3.94,5.4s3.89-2.35,3.89-5.5c0-2.9-1.39-5.4-3.91-5.4s-3.91,2.35-3.91,5.5Z"/>
    <path class="cls-9" d="M532.51,85.46c-1.13.38-3.26.91-5.4.91-2.95,0-5.09-.74-6.58-2.18-1.49-1.39-2.3-3.5-2.28-5.88.02-5.38,3.94-8.45,9.24-8.45,2.09,0,3.7.41,4.49.79l-.77,2.93c-.89-.38-1.99-.7-3.77-.7-3.05,0-5.35,1.73-5.35,5.23s2.09,5.3,5.09,5.3c.84,0,1.51-.1,1.8-.24v-3.38h-2.5v-2.86h6.02v8.52Z"/>
    <path class="cls-9" d="M553.77,77.94c0,5.3-3.22,8.52-7.94,8.52s-7.61-3.62-7.61-8.23c0-4.85,3.1-8.47,7.87-8.47s7.68,3.72,7.68,8.18ZM542.08,78.16c0,3.17,1.49,5.4,3.94,5.4s3.89-2.35,3.89-5.5c0-2.9-1.39-5.4-3.91-5.4s-3.91,2.35-3.91,5.5Z"/>
  </g>
  <g>
    <g>
      <path d="M381.56,172.95l-4.4-13.48h1.88l2.1,6.64c.58,1.82,1.08,3.46,1.44,5.04h.04c.38-1.56.94-3.26,1.54-5.02l2.28-6.66h1.86l-4.82,13.48h-1.92Z"/>
      <path d="M399.74,166.63h-5.24v4.86h5.84v1.46h-7.58v-13.48h7.28v1.46h-5.54v4.26h5.24v1.44Z"/>
      <path d="M405.6,159.64c.88-.18,2.14-.28,3.34-.28,1.86,0,3.06.34,3.9,1.1.68.6,1.06,1.52,1.06,2.56,0,1.78-1.12,2.96-2.54,3.44v.06c1.04.36,1.66,1.32,1.98,2.72.44,1.88.76,3.18,1.04,3.7h-1.8c-.22-.38-.52-1.54-.9-3.22-.4-1.86-1.12-2.56-2.7-2.62h-1.64v5.84h-1.74v-13.3ZM407.34,165.79h1.78c1.86,0,3.04-1.02,3.04-2.56,0-1.74-1.26-2.5-3.1-2.52-.84,0-1.44.08-1.72.16v4.92Z"/>
      <path d="M419.12,170.83c.78.48,1.92.88,3.12.88,1.78,0,2.82-.94,2.82-2.3,0-1.26-.72-1.98-2.54-2.68-2.2-.78-3.56-1.92-3.56-3.82,0-2.1,1.74-3.66,4.36-3.66,1.38,0,2.38.32,2.98.66l-.48,1.42c-.44-.24-1.34-.64-2.56-.64-1.84,0-2.54,1.1-2.54,2.02,0,1.26.82,1.88,2.68,2.6,2.28.88,3.44,1.98,3.44,3.96,0,2.08-1.54,3.88-4.72,3.88-1.3,0-2.72-.38-3.44-.86l.44-1.46Z"/>
      <path d="M434.4,168.71l-1.4,4.24h-1.8l4.58-13.48h2.1l4.6,13.48h-1.86l-1.44-4.24h-4.78ZM434.4,158.64c-.02-1.22.5-2.04,1.36-2.04.44,0,.78.18,1.2.4.32.18.64.36.94.36.32,0,.5-.14.54-.78h.94c.02,1.26-.42,1.94-1.36,1.94-.42,0-.78-.16-1.22-.38-.38-.2-.64-.38-.94-.38-.32,0-.46.34-.52.88h-.94ZM438.82,167.35l-1.32-3.88c-.3-.88-.5-1.68-.7-2.46h-.04c-.2.8-.42,1.62-.68,2.44l-1.32,3.9h4.06Z"/>
      <path d="M458.68,166.07c0,4.64-2.82,7.1-6.26,7.1s-6.06-2.76-6.06-6.84c0-4.28,2.66-7.08,6.26-7.08s6.06,2.82,6.06,6.82ZM448.22,166.29c0,2.88,1.56,5.46,4.3,5.46s4.32-2.54,4.32-5.6c0-2.68-1.4-5.48-4.3-5.48s-4.32,2.66-4.32,5.62Z"/>
      <path d="M480.6,172.51c-.64.32-1.92.64-3.56.64-3.8,0-6.66-2.4-6.66-6.82s2.86-7.08,7.04-7.08c1.68,0,2.74.36,3.2.6l-.42,1.42c-.66-.32-1.6-.56-2.72-.56-3.16,0-5.26,2.02-5.26,5.56,0,3.3,1.9,5.42,5.18,5.42,1.06,0,2.14-.22,2.84-.56l.36,1.38Z"/>
      <path d="M496.88,166.07c0,4.64-2.82,7.1-6.26,7.1s-6.06-2.76-6.06-6.84c0-4.28,2.66-7.08,6.26-7.08s6.06,2.82,6.06,6.82ZM486.42,166.29c0,2.88,1.56,5.46,4.3,5.46s4.32-2.54,4.32-5.6c0-2.68-1.4-5.48-4.3-5.48s-4.32,2.66-4.32,5.62Z"/>
      <path d="M502.14,159.46h1.74v12.02h5.76v1.46h-7.5v-13.48Z"/>
      <path d="M525.32,166.07c0,4.64-2.82,7.1-6.26,7.1s-6.06-2.76-6.06-6.84c0-4.28,2.66-7.08,6.26-7.08s6.06,2.82,6.06,6.82ZM514.86,166.29c0,2.88,1.56,5.46,4.3,5.46s4.32-2.54,4.32-5.6c0-2.68-1.4-5.48-4.3-5.48s-4.32,2.66-4.32,5.62Z"/>
      <path d="M530.58,159.64c.88-.18,2.14-.28,3.34-.28,1.86,0,3.06.34,3.9,1.1.68.6,1.06,1.52,1.06,2.56,0,1.78-1.12,2.96-2.54,3.44v.06c1.04.36,1.66,1.32,1.98,2.72.44,1.88.76,3.18,1.04,3.7h-1.8c-.22-.38-.52-1.54-.9-3.22-.4-1.86-1.12-2.56-2.7-2.62h-1.64v5.84h-1.74v-13.3ZM532.32,165.79h1.78c1.86,0,3.04-1.02,3.04-2.56,0-1.74-1.26-2.5-3.1-2.52-.84,0-1.44.08-1.72.16v4.92Z"/>
      <path d="M546.08,159.46v13.48h-1.74v-13.48h1.74Z"/>
      <path d="M552.12,159.64c1.06-.16,2.32-.28,3.7-.28,2.5,0,4.28.58,5.46,1.68,1.2,1.1,1.9,2.66,1.9,4.84s-.68,4-1.94,5.24c-1.26,1.26-3.34,1.94-5.96,1.94-1.24,0-2.28-.06-3.16-.16v-13.26ZM553.86,171.57c.44.08,1.08.1,1.76.1,3.72,0,5.74-2.08,5.74-5.72.02-3.18-1.78-5.2-5.46-5.2-.9,0-1.58.08-2.04.18v10.64Z"/>
      <path d="M570.34,168.71l-1.4,4.24h-1.8l4.58-13.48h2.1l4.6,13.48h-1.86l-1.44-4.24h-4.78ZM574.76,167.35l-1.32-3.88c-.3-.88-.5-1.68-.7-2.46h-.04c-.2.8-.42,1.62-.68,2.44l-1.32,3.9h4.06Z"/>
    </g>
    <line class="cls-3" x1="365.33" y1="190.6" x2="590.63" y2="190.6"/>
  </g>
  <g>
    <g>
      <g>
        <path class="cls-5" d="M276.36,338.5l5.48-.81,13.72-40.08h6.96l13.86,40.56,4.06.47v3.52h-20.82v-3.52l5.21-.68-2.77-8.72h-13.59l-2.77,8.45,5.21.81v3.65h-14.53v-3.65ZM300.83,325.31l-5.48-17.37-5.61,17.37h11.09Z"/>
        <path class="cls-5" d="M340.91,333.76c0-2.37.07-4.12.07-6.76v-12.91h-4.39v-3.99l4.93-.61,3.45-9.53h6.89l-.14,9.53h7.1v4.6h-7.1v18.93c0,3.18,1.42,4.6,3.45,4.6,1.22,0,2.37-.47,3.65-1.49l1.69,1.62c-1.83,3.45-5,5.41-9.94,5.41-6.08,0-9.67-2.7-9.67-9.4Z"/>
        <path class="cls-5" d="M361.73,326.19c0-11.22,7.3-17.78,16.83-17.78s14.53,6.08,14.53,14.26c0,1.49-.14,2.57-.41,3.65h-19.6c.54,7.17,4.73,10.41,9.73,10.41,3.45,0,5.95-1.15,8.04-3.58l2.3,1.89c-2.91,5.34-7.03,8.11-14.13,8.11-10.14,0-17.3-6.02-17.3-16.97ZM373.09,322.81h5.75c3.38,0,4.19-1.22,4.19-4.26,0-4.66-1.96-6.62-4.46-6.62-2.77,0-5.21,2.64-5.48,10.88Z"/>
        <path class="cls-5" d="M396.88,338.97l3.65-.81c.07-3.24.07-7.37.07-10.21v-3.92c0-3.72,0-5.14-.2-7.84l-4.12-.61v-2.64l13.32-4.53,1.22.74.41,4.87c3.18-3.72,6.56-5.61,10.55-5.61,4.6,0,7.64,1.96,8.92,6.02,3.79-4.53,7.03-6.02,10.95-6.02,6.83,0,9.8,3.92,9.8,12.03v7.5c0,2.91,0,7.03.07,10.27l3.45.74v3.18h-17.44v-3.18l3.31-.81c.07-3.24.07-7.3.07-10.21v-6.56c0-5.07-1.08-6.42-3.85-6.42-1.96,0-3.85.88-5.68,2.43.07.81.13,1.76.13,2.7v7.84c0,2.97,0,7.03.07,10.34l3.18.68v3.18h-17.44v-3.18l3.52-.81c.07-3.24.07-7.3.07-10.21v-6.49c0-4.73-.88-6.49-3.85-6.49-1.96,0-3.92,1.01-5.61,2.43v10.54c0,2.84,0,7.03.07,10.34l3.18.68v3.18h-17.78v-3.18Z"/>
        <path class="cls-5" d="M457.24,354.31l3.79-.81c.07-4.19.13-7.91.13-11.15v-18.32c0-3.72-.07-5.14-.2-7.84l-4.19-.61v-2.64l13.25-4.53,1.15.68.27,3.79c2.91-2.97,6.22-4.46,10-4.46,7.37,0,13.25,6.02,13.25,17.24s-6.83,17.51-14.47,17.51c-3.52,0-6.29-1.15-8.52-3.52v2.64c0,3.24.07,6.89.14,11.02l4.33,1.01v3.18h-18.93v-3.18ZM471.91,316.26v19.54c1.28,1.08,2.7,1.69,4.39,1.69,4.06,0,6.89-3.65,6.89-11.69s-2.7-11.49-6.62-11.49c-1.69,0-3.25.81-4.66,1.96Z"/>
        <path class="cls-5" d="M499.02,325.72c0-10.41,7.5-17.3,17.1-17.3s17.24,6.69,17.24,17.3-6.76,17.44-17.24,17.44-17.1-7.1-17.1-17.44ZM521.87,325.85c0-9.6-1.89-13.86-5.75-13.86s-5.68,4.26-5.68,13.86,1.89,13.79,5.68,13.79,5.75-4.19,5.75-13.79Z"/>
        <path class="cls-5" d="M551.67,326.19c0-11.22,7.3-17.78,16.83-17.78s14.53,6.08,14.53,14.26c0,1.49-.14,2.57-.41,3.65h-19.6c.54,7.17,4.73,10.41,9.73,10.41,3.45,0,5.95-1.15,8.04-3.58l2.3,1.89c-2.91,5.34-7.03,8.11-14.13,8.11-10.14,0-17.3-6.02-17.3-16.97ZM563.03,322.81h5.75c3.38,0,4.19-1.22,4.19-4.26,0-4.66-1.96-6.62-4.46-6.62-2.77,0-5.21,2.64-5.48,10.88Z"/>
        <path class="cls-5" d="M592.7,353.23c.61-3.11,2.5-4.66,5.27-4.66,2.37,0,3.92,1.28,5.27,3.92l.88,1.69c.27-.54.47-1.08.61-1.96.74-3.24.2-9.6.2-17.1v-10.41c0-3.72-.07-5.81-.2-8.52l-4.12-.61v-2.64l14.06-4.53,1.15.74-.2,9.8v19.54c0,8.11-1.08,11.83-4.39,15.14-3.51,3.52-7.44,4.53-10.88,4.53-4.46,0-6.89-1.89-7.64-4.93ZM604.33,298.28c0-3.18,2.57-5.41,5.75-5.41s5.75,2.23,5.75,5.41-2.57,5.34-5.75,5.34-5.75-2.23-5.75-5.34Z"/>
        <path class="cls-5" d="M645.56,337.21c-2.91,3.79-6.56,5.95-10.88,5.95-5.81,0-9.73-3.24-9.6-12.17l.27-16.49-3.92-.88v-2.84l13.79-1.96,1.08.74-.34,9.4v12.1c0,4.19,1.35,5.61,3.65,5.61,1.89,0,3.99-1.35,5.81-3.11l.27-19.13-3.72-.81v-2.64l13.45-2.16,1.08.74-.2,9.4v19.33l3.51.74v3.18l-13.86.68-.41-5.68Z"/>
        <path class="cls-5" d="M663.07,338.97l3.65-.81c.07-3.24.07-7.37.07-10.21v-3.92c0-3.72-.07-5.14-.2-7.84l-4.12-.61v-2.64l13.32-4.53,1.22.74.41,4.87c3.52-4.12,6.83-5.61,10.75-5.61,5.88,0,9.8,3.85,9.8,11.69v7.84c0,2.97,0,7.03.07,10.34l3.38.68v3.18h-17.85v-3.18l3.58-.81c.07-3.24.07-7.3.07-10.21v-7.1c0-4.33-1.15-5.88-3.79-5.88-1.69,0-3.79.88-5.81,2.43v10.54c0,2.84,0,7.03.07,10.34l3.18.68v3.18h-17.78v-3.18Z"/>
        <path class="cls-5" d="M707.55,333.76c0-2.37.07-4.12.07-6.76v-12.91h-4.39v-3.99l4.93-.61,3.45-9.53h6.89l-.14,9.53h7.1v4.6h-7.1v18.93c0,3.18,1.42,4.6,3.45,4.6,1.22,0,2.37-.47,3.65-1.49l1.69,1.62c-1.83,3.45-5,5.41-9.94,5.41-6.08,0-9.67-2.7-9.67-9.4Z"/>
        <path class="cls-5" d="M728.37,325.72c0-10.41,7.5-17.3,17.1-17.3s17.24,6.69,17.24,17.3-6.76,17.44-17.24,17.44-17.1-7.1-17.1-17.44ZM751.22,325.85c0-9.6-1.89-13.86-5.75-13.86s-5.68,4.26-5.68,13.86,1.89,13.79,5.68,13.79,5.75-4.19,5.75-13.79Z"/>
        <path class="cls-5" d="M768.18,315.04c0-3.31,2.64-6.15,6.08-6.15s6.08,2.84,6.08,6.15-2.64,6.02-6.08,6.02-6.08-2.7-6.08-6.02ZM768.18,337.14c0-3.31,2.64-6.15,6.08-6.15s6.08,2.84,6.08,6.15-2.64,6.02-6.08,6.02-6.08-2.7-6.08-6.02Z"/>
      </g>
      <g>
        <path d="M283.02,384.83h-2.23v-2.63l2.23-.15v-1.56c0-3.12,1.44-5.38,4.98-5.38,1.07,0,2.08.24,2.75.52l-.73,2.54c-.55-.18-1.07-.27-1.59-.27-1.22,0-1.89.83-1.89,2.54v1.62h2.93v2.78h-2.93v12.23h-3.52v-12.23Z"/>
        <path d="M291.12,389.57c0-5.01,3.39-7.89,7.12-7.89s7.15,2.87,7.15,7.89-3.39,7.85-7.15,7.85-7.12-2.87-7.12-7.85ZM301.79,389.57c0-3.03-1.35-5.01-3.55-5.01s-3.52,1.99-3.52,5.01,1.31,4.98,3.52,4.98,3.55-1.99,3.55-4.98Z"/>
        <path d="M309.19,382.05h2.9l.24,2.66h.12c1.04-1.96,2.63-3.03,4.25-3.03.76,0,1.25.09,1.71.31l-.7,3c-.49-.12-.83-.18-1.47-.18-1.19,0-2.63.83-3.54,3.09v9.17h-3.52v-15.01Z"/>
        <path d="M321.41,391.95v-7.12h-2.14v-2.63l2.32-.15.43-4.71h2.93v4.71h3.82v2.78h-3.82v7.12c0,1.74.67,2.63,2.11,2.63.52,0,1.07-.09,1.56-.31l.64,2.48c-.79.34-1.86.61-3.09.61-3.48,0-4.77-2.17-4.77-5.41Z"/>
        <path d="M330.77,393.02c0-3.36,2.69-4.95,8.86-5.62-.06-1.53-.73-2.81-2.75-2.81-1.47,0-2.87.61-4.22,1.41l-1.28-2.38c1.65-1.04,3.79-1.93,6.17-1.93,3.73,0,5.59,2.29,5.59,6.51v8.86h-2.9l-.24-1.65h-.12c-1.41,1.16-2.87,2.02-4.65,2.02-2.63,0-4.46-1.77-4.46-4.4ZM339.63,393.02v-3.18c-4.1.49-5.44,1.41-5.44,2.93,0,1.28.92,1.77,2.14,1.77s2.2-.49,3.3-1.53Z"/>
        <path d="M347.67,393.14v-17.67h3.52v17.85c0,.89.4,1.16.79,1.16.15,0,.27,0,.52-.06l.46,2.63c-.43.18-1.04.31-1.86.31-2.51,0-3.42-1.59-3.42-4.22Z"/>
        <path d="M355.25,389.54c0-4.89,3.42-7.85,6.97-7.85,4.1,0,6.17,2.96,6.17,7.12,0,.67-.06,1.28-.18,1.83h-9.41c.4,2.75,2.26,3.97,4.34,3.97,1.28,0,2.44-.37,3.48-1.04l1.22,2.26c-1.41.98-3.24,1.59-5.13,1.59-4.22,0-7.46-2.87-7.46-7.89ZM358.86,387.95h6.42c0-2.14-.98-3.48-3-3.48-1.47,0-3,.83-3.42,3.48Z"/>
        <path d="M371.09,389.57c0-5.01,3.52-7.89,7.52-7.89,1.93,0,3.33.67,4.4,1.68l-1.68,2.17c-.67-.58-1.47-.98-2.54-.98-2.38,0-4.1,1.99-4.1,5.01s1.65,4.98,4.03,4.98c1.16,0,2.23-.46,3.06-1.19l1.44,2.17c-1.25,1.16-2.96,1.9-4.83,1.9-4.16,0-7.3-2.87-7.3-7.85Z"/>
        <path d="M384.75,389.54c0-4.89,3.42-7.85,6.97-7.85,4.1,0,6.17,2.96,6.17,7.12,0,.67-.06,1.28-.18,1.83h-9.41c.4,2.75,2.26,3.97,4.34,3.97,1.28,0,2.44-.37,3.48-1.04l1.22,2.26c-1.41.98-3.24,1.59-5.13,1.59-4.22,0-7.46-2.87-7.46-7.89ZM388.36,387.95h6.42c0-2.14-.98-3.48-3-3.48-1.47,0-3,.83-3.42,3.48Z"/>
        <path d="M401.56,382.05h2.9l.24,2.02h.12c1.34-1.31,2.87-2.38,4.92-2.38,3.21,0,4.62,2.17,4.62,5.96v9.41h-3.51v-8.96c0-2.48-.7-3.39-2.35-3.39-1.31,0-2.17.64-3.42,1.86v10.48h-3.52v-15.01Z"/>
        <path d="M418.07,389.57c0-4.89,3.09-7.89,6.36-7.89,1.71,0,2.78.64,3.94,1.65l-.12-2.41v-5.44h3.52v21.58h-2.9l-.24-1.62h-.12c-1.1,1.1-2.63,1.99-4.25,1.99-3.76,0-6.17-2.9-6.17-7.85ZM428.25,392.84v-7c-1.04-.92-2.05-1.25-3.06-1.25-1.93,0-3.48,1.8-3.48,4.95s1.22,4.98,3.39,4.98c1.16,0,2.14-.52,3.15-1.68Z"/>
        <path d="M435.56,389.57c0-5.01,3.39-7.89,7.12-7.89s7.15,2.87,7.15,7.89-3.39,7.85-7.15,7.85-7.12-2.87-7.12-7.85ZM446.22,389.57c0-3.03-1.35-5.01-3.55-5.01s-3.52,1.99-3.52,5.01,1.31,4.98,3.52,4.98,3.55-1.99,3.55-4.98Z"/>
        <path d="M459.06,389.57c0-5.01,3.52-7.89,7.52-7.89,1.93,0,3.33.67,4.4,1.68l-1.68,2.17c-.67-.58-1.47-.98-2.54-.98-2.38,0-4.1,1.99-4.1,5.01s1.65,4.98,4.03,4.98c1.16,0,2.23-.46,3.06-1.19l1.44,2.17c-1.25,1.16-2.96,1.9-4.83,1.9-4.16,0-7.3-2.87-7.3-7.85Z"/>
        <path d="M474.31,391.46v-9.41h3.52v8.96c0,2.48.7,3.39,2.32,3.39,1.31,0,2.2-.61,3.33-2.08v-10.27h3.51v15.01h-2.87l-.27-2.2h-.09c-1.31,1.56-2.78,2.57-4.83,2.57-3.21,0-4.62-2.17-4.62-5.96Z"/>
        <path d="M491.4,377.4c0-1.19.86-1.99,2.11-1.99s2.11.79,2.11,1.99-.86,2.02-2.11,2.02-2.11-.79-2.11-2.02ZM491.77,382.05h3.52v15.01h-3.52v-15.01Z"/>
        <path d="M499.17,389.57c0-4.89,3.09-7.89,6.36-7.89,1.71,0,2.78.64,3.94,1.65l-.12-2.41v-5.44h3.52v21.58h-2.9l-.24-1.62h-.12c-1.1,1.1-2.63,1.99-4.25,1.99-3.76,0-6.17-2.9-6.17-7.85ZM509.34,392.84v-7c-1.04-.92-2.05-1.25-3.06-1.25-1.93,0-3.48,1.8-3.48,4.95s1.22,4.98,3.39,4.98c1.16,0,2.14-.52,3.15-1.68Z"/>
        <path d="M516.8,393.02c0-3.36,2.69-4.95,8.86-5.62-.06-1.53-.73-2.81-2.75-2.81-1.47,0-2.87.61-4.22,1.41l-1.28-2.38c1.65-1.04,3.79-1.93,6.17-1.93,3.73,0,5.59,2.29,5.59,6.51v8.86h-2.9l-.24-1.65h-.12c-1.41,1.16-2.87,2.02-4.65,2.02-2.63,0-4.46-1.77-4.46-4.4ZM525.67,393.02v-3.18c-4.1.49-5.44,1.41-5.44,2.93,0,1.28.92,1.77,2.14,1.77s2.2-.49,3.3-1.53Z"/>
        <path d="M532.79,389.57c0-4.89,3.09-7.89,6.36-7.89,1.71,0,2.78.64,3.94,1.65l-.12-2.41v-5.44h3.52v21.58h-2.9l-.24-1.62h-.12c-1.1,1.1-2.63,1.99-4.25,1.99-3.76,0-6.17-2.9-6.17-7.85ZM542.97,392.84v-7c-1.04-.92-2.05-1.25-3.06-1.25-1.93,0-3.48,1.8-3.48,4.95s1.22,4.98,3.39,4.98c1.16,0,2.14-.52,3.15-1.68Z"/>
        <path d="M550.28,389.57c0-5.01,3.39-7.89,7.12-7.89s7.15,2.87,7.15,7.89-3.39,7.85-7.15,7.85-7.12-2.87-7.12-7.85ZM560.94,389.57c0-3.03-1.35-5.01-3.55-5.01s-3.52,1.99-3.52,5.01,1.31,4.98,3.52,4.98,3.55-1.99,3.55-4.98Z"/>
        <path d="M573.75,389.54c0-4.89,3.42-7.85,6.97-7.85,4.1,0,6.17,2.96,6.17,7.12,0,.67-.06,1.28-.18,1.83h-9.41c.4,2.75,2.26,3.97,4.34,3.97,1.28,0,2.44-.37,3.48-1.04l1.22,2.26c-1.41.98-3.24,1.59-5.13,1.59-4.22,0-7.46-2.87-7.46-7.89ZM577.36,387.95h6.42c0-2.14-.98-3.48-3-3.48-1.47,0-3,.83-3.42,3.48Z"/>
        <path d="M590.56,382.05h2.9l.24,2.05h.12c1.25-1.34,2.72-2.41,4.58-2.41,2.2,0,3.45,1.01,4.16,2.69,1.44-1.53,2.93-2.69,4.83-2.69,3.18,0,4.65,2.17,4.65,5.96v9.41h-3.55v-8.96c0-2.48-.73-3.39-2.29-3.39-.95,0-1.99.61-3.15,1.86v10.48h-3.51v-8.96c0-2.48-.73-3.39-2.32-3.39-.92,0-1.99.61-3.15,1.86v10.48h-3.52v-15.01Z"/>
        <path d="M623.06,382.05h2.9l.24,2.66h.12c1.04-1.96,2.63-3.03,4.25-3.03.76,0,1.25.09,1.71.31l-.7,3c-.49-.12-.83-.18-1.47-.18-1.19,0-2.63.83-3.54,3.09v9.17h-3.52v-15.01Z"/>
        <path d="M633.45,389.54c0-4.89,3.42-7.85,6.97-7.85,4.1,0,6.17,2.96,6.17,7.12,0,.67-.06,1.28-.18,1.83h-9.41c.4,2.75,2.26,3.97,4.34,3.97,1.28,0,2.44-.37,3.48-1.04l1.22,2.26c-1.41.98-3.24,1.59-5.13,1.59-4.22,0-7.46-2.87-7.46-7.89ZM637.06,387.95h6.42c0-2.14-.98-3.48-3-3.48-1.47,0-3,.83-3.42,3.48Z"/>
        <path d="M649.35,389.57c0-4.89,3.09-7.89,6.36-7.89,1.71,0,2.78.64,3.94,1.65l-.12-2.41v-5.44h3.52v21.58h-2.9l-.24-1.62h-.12c-1.1,1.1-2.63,1.99-4.25,1.99-3.76,0-6.17-2.9-6.17-7.85ZM659.52,392.84v-7c-1.04-.92-2.05-1.25-3.06-1.25-1.93,0-3.48,1.8-3.48,4.95s1.22,4.98,3.39,4.98c1.16,0,2.14-.52,3.15-1.68Z"/>
        <path d="M666.8,389.54c0-4.89,3.42-7.85,6.97-7.85,4.1,0,6.17,2.96,6.17,7.12,0,.67-.06,1.28-.18,1.83h-9.41c.4,2.75,2.26,3.97,4.34,3.97,1.28,0,2.44-.37,3.48-1.04l1.22,2.26c-1.41.98-3.24,1.59-5.13,1.59-4.22,0-7.46-2.87-7.46-7.89ZM670.41,387.95h6.42c0-2.14-.98-3.48-3-3.48-1.47,0-3,.83-3.42,3.48Z"/>
        <path d="M682.11,395.22l1.56-2.02c1.31,1.1,2.69,1.56,4.25,1.56s2.38-.76,2.38-1.8c0-1.25-1.5-1.77-3.15-2.38-2.17-.79-4.19-2.02-4.19-4.4,0-2.63,2.08-4.49,5.44-4.49,2.05,0,3.79.76,5.01,1.8l-1.56,1.99c-1.07-.76-2.17-1.13-3.36-1.13-1.53,0-2.23.73-2.23,1.65,0,1.1,1.1,1.56,3,2.2,2.32.79,4.37,1.96,4.37,4.58s-2.05,4.65-5.84,4.65c-2.08,0-4.22-.79-5.69-2.2Z"/>
        <path d="M702.5,389.54c0-4.89,3.42-7.85,6.97-7.85,4.1,0,6.17,2.96,6.17,7.12,0,.67-.06,1.28-.18,1.83h-9.41c.4,2.75,2.26,3.97,4.34,3.97,1.28,0,2.44-.37,3.48-1.04l1.22,2.26c-1.41.98-3.24,1.59-5.13,1.59-4.22,0-7.46-2.87-7.46-7.89ZM706.11,387.95h6.42c0-2.14-.98-3.48-3-3.48-1.47,0-3,.83-3.42,3.48Z"/>
        <path d="M724.82,389.57c0-4.89,3.09-7.89,6.36-7.89,1.71,0,2.78.64,3.94,1.65l-.12-2.41v-5.44h3.52v21.58h-2.9l-.24-1.62h-.12c-1.1,1.1-2.63,1.99-4.25,1.99-3.76,0-6.17-2.9-6.17-7.85ZM734.99,392.84v-7c-1.04-.92-2.05-1.25-3.06-1.25-1.93,0-3.48,1.8-3.48,4.95s1.22,4.98,3.39,4.98c1.16,0,2.14-.52,3.15-1.68Z"/>
        <path d="M742.91,377.4c0-1.19.86-1.99,2.11-1.99s2.11.79,2.11,1.99-.86,2.02-2.11,2.02-2.11-.79-2.11-2.02ZM743.28,382.05h3.52v15.01h-3.52v-15.01Z"/>
        <path d="M751.59,382.05h2.9l.24,2.66h.12c1.04-1.96,2.63-3.03,4.25-3.03.76,0,1.25.09,1.71.31l-.7,3c-.49-.12-.83-.18-1.47-.18-1.19,0-2.63.83-3.55,3.09v9.17h-3.52v-15.01Z"/>
        <path d="M761.99,389.54c0-4.89,3.42-7.85,6.97-7.85,4.1,0,6.17,2.96,6.17,7.12,0,.67-.06,1.28-.18,1.83h-9.41c.4,2.75,2.26,3.97,4.34,3.97,1.28,0,2.44-.37,3.48-1.04l1.22,2.26c-1.41.98-3.24,1.59-5.13,1.59-4.22,0-7.46-2.87-7.46-7.89ZM765.59,387.95h6.42c0-2.14-.98-3.48-3-3.48-1.47,0-3,.83-3.42,3.48Z"/>
        <path d="M778.43,377.4c0-1.19.86-1.99,2.11-1.99s2.11.79,2.11,1.99-.86,2.02-2.11,2.02-2.11-.79-2.11-2.02ZM778.8,382.05h3.52v15.01h-3.52v-15.01Z"/>
        <path d="M787.63,391.95v-7.12h-2.14v-2.63l2.32-.15.43-4.71h2.93v4.71h3.82v2.78h-3.82v7.12c0,1.74.67,2.63,2.11,2.63.52,0,1.07-.09,1.56-.31l.64,2.48c-.79.34-1.86.61-3.09.61-3.48,0-4.77-2.17-4.77-5.41Z"/>
        <path d="M796.99,389.57c0-5.01,3.39-7.89,7.12-7.89s7.15,2.87,7.15,7.89-3.39,7.85-7.15,7.85-7.12-2.87-7.12-7.85ZM807.65,389.57c0-3.03-1.35-5.01-3.55-5.01s-3.52,1.99-3.52,5.01,1.31,4.98,3.52,4.98,3.55-1.99,3.55-4.98Z"/>
        <path d="M813.43,395.22l1.56-2.02c1.31,1.1,2.69,1.56,4.25,1.56s2.38-.76,2.38-1.8c0-1.25-1.5-1.77-3.15-2.38-2.17-.79-4.19-2.02-4.19-4.4,0-2.63,2.08-4.49,5.44-4.49,2.05,0,3.79.76,5.01,1.8l-1.56,1.99c-1.07-.76-2.17-1.13-3.36-1.13-1.53,0-2.23.73-2.23,1.65,0,1.1,1.1,1.56,3,2.2,2.32.79,4.37,1.96,4.37,4.58s-2.05,4.65-5.84,4.65c-2.08,0-4.22-.79-5.69-2.2Z"/>
        <path d="M282.69,418.88h2.08l.21,2.14h.09c1.41-1.41,2.93-2.51,4.98-2.51,3.12,0,4.52,2.02,4.52,5.81v9.41h-2.51v-9.08c0-2.78-.86-3.97-2.81-3.97-1.53,0-2.57.79-4.06,2.29v10.76h-2.51v-14.85Z"/>
        <path d="M298.15,429.89c0-3.33,2.81-4.89,9.17-5.59-.03-1.86-.67-3.67-3.09-3.67-1.71,0-3.27.79-4.43,1.53l-.98-1.71c1.38-.92,3.45-1.93,5.84-1.93,3.61,0,5.17,2.41,5.17,6.11v9.11h-2.08l-.21-1.77h-.09c-1.47,1.19-3.06,2.14-4.92,2.14-2.48,0-4.37-1.53-4.37-4.22ZM307.32,430.1v-4c-5.01.58-6.69,1.71-6.69,3.64,0,1.65,1.16,2.29,2.6,2.29s2.66-.64,4.1-1.93Z"/>
        <path d="M312.55,431.97l1.16-1.47c1.28,1.07,2.63,1.65,4.46,1.65,1.96,0,2.93-1.04,2.93-2.32,0-1.53-1.68-2.17-3.36-2.78-2.23-.79-4.37-1.86-4.37-4.31s1.89-4.22,5.13-4.22c1.83,0,3.45.7,4.62,1.68l-1.16,1.44c-1.04-.73-2.11-1.16-3.45-1.16-1.86,0-2.72,1.01-2.72,2.14,0,1.34,1.31,1.9,3.15,2.54,2.32.83,4.58,1.83,4.58,4.52,0,2.41-1.93,4.43-5.44,4.43-2.17,0-4.16-.79-5.53-2.14Z"/>
        <path d="M330.86,431.97l1.16-1.47c1.28,1.07,2.63,1.65,4.46,1.65,1.96,0,2.93-1.04,2.93-2.32,0-1.53-1.68-2.17-3.36-2.78-2.23-.79-4.37-1.86-4.37-4.31s1.89-4.22,5.13-4.22c1.83,0,3.45.7,4.62,1.68l-1.16,1.44c-1.04-.73-2.11-1.16-3.45-1.16-1.86,0-2.72,1.01-2.72,2.14,0,1.34,1.31,1.9,3.15,2.54,2.32.83,4.58,1.83,4.58,4.52,0,2.41-1.93,4.43-5.44,4.43-2.17,0-4.16-.79-5.53-2.14Z"/>
        <path d="M344.59,414.18c0-.98.7-1.65,1.68-1.65s1.68.67,1.68,1.65-.7,1.65-1.68,1.65-1.68-.64-1.68-1.65ZM345.01,418.88h2.51v14.85h-2.51v-14.85Z"/>
        <path d="M352.66,429.06v-8.13h-2.2v-1.9l2.32-.15.31-4.77h2.11v4.77h4v2.05h-4v8.19c0,1.8.58,2.84,2.29,2.84.52,0,1.1-.09,1.68-.37l.52,1.77c-.79.4-1.77.64-2.78.64-3.18,0-4.25-1.99-4.25-4.95Z"/>
        <path d="M362.04,428.3v-9.41h2.54v9.08c0,2.78.83,3.97,2.78,3.97,1.53,0,2.6-.76,4-2.51v-10.54h2.51v14.85h-2.08l-.21-2.32h-.09c-1.38,1.62-2.84,2.69-4.89,2.69-3.15,0-4.55-2.02-4.55-5.81Z"/>
        <path d="M377.63,429.89c0-3.33,2.81-4.89,9.17-5.59-.03-1.86-.67-3.67-3.09-3.67-1.71,0-3.27.79-4.43,1.53l-.98-1.71c1.38-.92,3.45-1.93,5.84-1.93,3.61,0,5.17,2.41,5.17,6.11v9.11h-2.08l-.21-1.77h-.09c-1.47,1.19-3.06,2.14-4.92,2.14-2.48,0-4.37-1.53-4.37-4.22ZM386.8,430.1v-4c-5.01.58-6.69,1.71-6.69,3.64,0,1.65,1.16,2.29,2.6,2.29s2.66-.64,4.1-1.93Z"/>
        <path d="M396.4,439.42c2.57-.18,3.33-.64,3.33-1.53,0-.79-.61-1.22-2.35-1.47l1.16-2.38c-3.45-.46-5.96-3.21-5.96-7.7,0-4.98,3.33-7.82,7.15-7.82,1.96,0,3.33.73,4.34,1.74l-1.25,1.53c-.76-.7-1.71-1.19-3-1.19-2.66,0-4.65,2.32-4.65,5.75s1.86,5.69,4.61,5.69c1.35,0,2.57-.58,3.45-1.41l1.1,1.53c-1.1,1.07-2.54,1.8-4.19,1.93l-.7,1.62c1.41.34,2.23.92,2.23,2.17,0,1.77-1.8,2.63-5.04,2.78l-.24-1.22Z"/>
        <path d="M405.57,426.34c0-4.98,3.24-7.82,6.88-7.82s6.88,2.84,6.88,7.82-3.24,7.76-6.88,7.76-6.88-2.84-6.88-7.76ZM410.28,413.54c-.92,0-1.34.98-1.44,2.41l-1.68-.09c.09-2.38.98-4.16,3.09-4.16s2.96,2.57,4.4,2.57c.89,0,1.31-1.01,1.41-2.41l1.68.12c-.09,2.35-.98,4.13-3.09,4.13s-2.96-2.57-4.37-2.57ZM416.72,426.34c0-3.42-1.71-5.75-4.28-5.75s-4.28,2.32-4.28,5.75,1.74,5.69,4.28,5.69,4.28-2.29,4.28-5.69Z"/>
        <path d="M421.8,426.31c0-4.83,3.3-7.79,6.72-7.79,3.82,0,5.9,2.75,5.9,6.97,0,.52-.03,1.01-.12,1.5h-9.93c.24,3.33,2.38,5.07,4.89,5.07,1.41,0,2.66-.43,3.7-1.13l.92,1.65c-1.31.89-2.9,1.53-4.92,1.53-4,0-7.15-2.87-7.15-7.79ZM424.43,425h7.73c0-2.87-1.31-4.43-3.61-4.43-1.83,0-3.73,1.25-4.13,4.43Z"/>
        <path d="M436.14,431.97l1.16-1.47c1.28,1.07,2.63,1.65,4.46,1.65,1.96,0,2.93-1.04,2.93-2.32,0-1.53-1.68-2.17-3.36-2.78-2.23-.79-4.37-1.86-4.37-4.31s1.89-4.22,5.13-4.22c1.83,0,3.45.7,4.62,1.68l-1.16,1.44c-1.04-.73-2.11-1.16-3.45-1.16-1.86,0-2.72,1.01-2.72,2.14,0,1.34,1.31,1.9,3.15,2.54,2.32.83,4.58,1.83,4.58,4.52,0,2.41-1.93,4.43-5.44,4.43-2.17,0-4.16-.79-5.53-2.14Z"/>
        <path d="M455.03,426.34c0-4.83,3.06-7.82,6.45-7.82,1.71,0,2.84.64,4.16,1.71l-.12-2.54v-5.72h2.54v21.76h-2.08l-.21-1.74h-.09c-1.16,1.13-2.75,2.11-4.49,2.11-3.73,0-6.14-2.81-6.14-7.76ZM465.51,429.95v-7.76c-1.25-1.13-2.38-1.56-3.61-1.56-2.38,0-4.28,2.29-4.28,5.69s1.5,5.68,4.1,5.68c1.38,0,2.57-.67,3.79-2.05Z"/>
        <path d="M471.62,426.31c0-4.83,3.3-7.79,6.72-7.79,3.82,0,5.9,2.75,5.9,6.97,0,.52-.03,1.01-.12,1.5h-9.93c.24,3.33,2.38,5.07,4.89,5.07,1.41,0,2.66-.43,3.7-1.13l.92,1.65c-1.31.89-2.9,1.53-4.92,1.53-4,0-7.15-2.87-7.15-7.79ZM474.25,425h7.73c0-2.87-1.31-4.43-3.61-4.43-1.83,0-3.73,1.25-4.13,4.43Z"/>
        <path d="M492.32,426.34c0-4.98,3.33-7.82,7.15-7.82,1.96,0,3.33.73,4.34,1.74l-1.25,1.53c-.76-.7-1.71-1.19-3-1.19-2.66,0-4.65,2.32-4.65,5.75s1.86,5.69,4.61,5.69c1.35,0,2.57-.58,3.45-1.41l1.1,1.53c-1.22,1.19-2.87,1.96-4.77,1.96-3.97,0-7-2.84-7-7.76Z"/>
        <path d="M507.05,418.88h2.08l.21,2.69h.09c.98-1.86,2.51-3.06,4.22-3.06.64,0,1.1.09,1.59.31l-.55,2.14c-.46-.12-.76-.18-1.38-.18-1.25,0-2.75.92-3.76,3.42v9.54h-2.51v-14.85Z"/>
        <path d="M516.92,414.18c0-.98.7-1.65,1.68-1.65s1.68.67,1.68,1.65-.7,1.65-1.68,1.65-1.68-.64-1.68-1.65ZM517.35,418.88h2.51v14.85h-2.51v-14.85Z"/>
        <path d="M522.92,431.97l1.16-1.47c1.28,1.07,2.63,1.65,4.46,1.65,1.96,0,2.93-1.04,2.93-2.32,0-1.53-1.68-2.17-3.36-2.78-2.23-.79-4.37-1.86-4.37-4.31s1.89-4.22,5.13-4.22c1.83,0,3.45.7,4.62,1.68l-1.16,1.44c-1.04-.73-2.11-1.16-3.45-1.16-1.86,0-2.72,1.01-2.72,2.14,0,1.34,1.31,1.9,3.15,2.54,2.32.83,4.58,1.83,4.58,4.52,0,2.41-1.93,4.43-5.44,4.43-2.17,0-4.16-.79-5.53-2.14Z"/>
        <path d="M535.94,426.31c0-4.83,3.3-7.79,6.72-7.79,3.82,0,5.9,2.75,5.9,6.97,0,.52-.03,1.01-.12,1.5h-9.93c.24,3.33,2.38,5.07,4.89,5.07,1.41,0,2.66-.43,3.7-1.13l.92,1.65c-1.31.89-2.9,1.53-4.92,1.53-4,0-7.15-2.87-7.15-7.79ZM538.57,425h7.73c0-2.87-1.31-4.43-3.61-4.43-1.83,0-3.73,1.25-4.13,4.43Z"/>
        <path d="M556.6,426.31c0-4.83,3.3-7.79,6.72-7.79,3.82,0,5.9,2.75,5.9,6.97,0,.52-.03,1.01-.12,1.5h-9.93c.24,3.33,2.38,5.07,4.89,5.07,1.41,0,2.66-.43,3.7-1.13l.92,1.65c-1.31.89-2.9,1.53-4.92,1.53-4,0-7.15-2.87-7.15-7.79ZM559.23,425h7.73c0-2.87-1.31-4.43-3.61-4.43-1.83,0-3.73,1.25-4.13,4.43Z"/>
        <path d="M572.59,418.88h2.08l.21,2.14h.09c1.28-1.41,2.84-2.51,4.62-2.51,2.26,0,3.48,1.07,4.1,2.84,1.56-1.68,3.09-2.84,4.89-2.84,3.06,0,4.52,2.02,4.52,5.81v9.41h-2.51v-9.08c0-2.78-.89-3.97-2.75-3.97-1.16,0-2.35.76-3.73,2.29v10.76h-2.51v-9.08c0-2.78-.89-3.97-2.78-3.97-1.1,0-2.35.76-3.73,2.29v10.76h-2.51v-14.85Z"/>
        <path d="M601.78,431.97l1.16-1.47c1.28,1.07,2.63,1.65,4.46,1.65,1.96,0,2.93-1.04,2.93-2.32,0-1.53-1.68-2.17-3.36-2.78-2.23-.79-4.37-1.86-4.37-4.31s1.89-4.22,5.13-4.22c1.83,0,3.45.7,4.62,1.68l-1.16,1.44c-1.04-.73-2.11-1.16-3.45-1.16-1.86,0-2.72,1.01-2.72,2.14,0,1.34,1.31,1.9,3.15,2.54,2.32.83,4.58,1.83,4.58,4.52,0,2.41-1.93,4.43-5.44,4.43-2.17,0-4.16-.79-5.53-2.14Z"/>
        <path d="M614.99,429.89c0-3.33,2.81-4.89,9.17-5.59-.03-1.86-.67-3.67-3.09-3.67-1.71,0-3.27.79-4.43,1.53l-.98-1.71c1.38-.92,3.45-1.93,5.84-1.93,3.61,0,5.17,2.41,5.17,6.11v9.11h-2.08l-.21-1.77h-.09c-1.47,1.19-3.06,2.14-4.92,2.14-2.48,0-4.37-1.53-4.37-4.22ZM624.15,430.1v-4c-5.01.58-6.69,1.71-6.69,3.64,0,1.65,1.16,2.29,2.6,2.29s2.66-.64,4.1-1.93Z"/>
        <path d="M630.82,428.3v-9.41h2.54v9.08c0,2.78.83,3.97,2.78,3.97,1.53,0,2.6-.76,4-2.51v-10.54h2.51v14.85h-2.08l-.21-2.32h-.09c-1.38,1.62-2.84,2.69-4.89,2.69-3.15,0-4.55-2.02-4.55-5.81ZM638.4,411.27h2.75l.15.27-4.83,4.77h-2.02l3.94-5.04Z"/>
        <path d="M646.29,426.34c0-4.83,3.06-7.82,6.45-7.82,1.71,0,2.84.64,4.16,1.71l-.12-2.54v-5.72h2.54v21.76h-2.08l-.21-1.74h-.09c-1.16,1.13-2.75,2.11-4.49,2.11-3.73,0-6.14-2.81-6.14-7.76ZM656.77,429.95v-7.76c-1.25-1.13-2.38-1.56-3.61-1.56-2.38,0-4.28,2.29-4.28,5.69s1.5,5.68,4.1,5.68c1.38,0,2.57-.67,3.79-2.05Z"/>
        <path d="M662.89,426.31c0-4.83,3.3-7.79,6.72-7.79,3.82,0,5.9,2.75,5.9,6.97,0,.52-.03,1.01-.12,1.5h-9.93c.24,3.33,2.38,5.07,4.89,5.07,1.41,0,2.66-.43,3.7-1.13l.92,1.65c-1.31.89-2.9,1.53-4.92,1.53-4,0-7.15-2.87-7.15-7.79ZM665.51,425h7.73c0-2.87-1.31-4.43-3.61-4.43-1.83,0-3.73,1.25-4.13,4.43Z"/>
        <path d="M684.68,418.88h2.08l.21,2.14h.09c1.28-1.41,2.84-2.51,4.62-2.51,2.26,0,3.48,1.07,4.1,2.84,1.56-1.68,3.09-2.84,4.89-2.84,3.06,0,4.52,2.02,4.52,5.81v9.41h-2.51v-9.08c0-2.78-.89-3.97-2.75-3.97-1.16,0-2.35.76-3.73,2.29v10.76h-2.51v-9.08c0-2.78-.89-3.97-2.78-3.97-1.1,0-2.35.76-3.73,2.29v10.76h-2.51v-14.85Z"/>
        <path d="M708.58,426.31c0-4.83,3.3-7.79,6.72-7.79,3.82,0,5.9,2.75,5.9,6.97,0,.52-.03,1.01-.12,1.5h-9.93c.24,3.33,2.38,5.07,4.89,5.07,1.41,0,2.66-.43,3.7-1.13l.92,1.65c-1.31.89-2.9,1.53-4.92,1.53-4,0-7.15-2.87-7.15-7.79ZM711.21,425h7.73c0-2.87-1.31-4.43-3.61-4.43-1.83,0-3.73,1.25-4.13,4.43Z"/>
        <path d="M724.57,418.88h2.08l.21,2.14h.09c1.41-1.41,2.93-2.51,4.98-2.51,3.12,0,4.52,2.02,4.52,5.81v9.41h-2.51v-9.08c0-2.78-.86-3.97-2.81-3.97-1.53,0-2.57.79-4.06,2.29v10.76h-2.51v-14.85Z"/>
        <path d="M741.41,429.06v-8.13h-2.2v-1.9l2.32-.15.31-4.77h2.11v4.77h4v2.05h-4v8.19c0,1.8.58,2.84,2.29,2.84.52,0,1.1-.09,1.68-.37l.52,1.77c-.79.4-1.77.64-2.78.64-3.18,0-4.25-1.99-4.25-4.95Z"/>
        <path d="M749.42,429.89c0-3.33,2.81-4.89,9.17-5.59-.03-1.86-.67-3.67-3.09-3.67-1.71,0-3.27.79-4.43,1.53l-.98-1.71c1.38-.92,3.45-1.93,5.84-1.93,3.61,0,5.17,2.41,5.17,6.11v9.11h-2.08l-.21-1.77h-.09c-1.47,1.19-3.06,2.14-4.92,2.14-2.48,0-4.37-1.53-4.37-4.22ZM758.59,430.1v-4c-5.01.58-6.69,1.71-6.69,3.64,0,1.65,1.16,2.29,2.6,2.29s2.66-.64,4.1-1.93Z"/>
        <path d="M765.47,430.68v-18.71h2.51v18.89c0,.79.34,1.07.73,1.07.15,0,.27,0,.52-.06l.34,1.9c-.34.15-.83.24-1.44.24-1.89,0-2.66-1.19-2.66-3.33Z"/>
      </g>
    </g>
    <path class="cls-4" d="M184.07,435.62c-2.09-2.6-5.13-4.03-8.41-3.77-3.04.24-5.87,1.86-7.56,4.73-.73.28-1.69.22-2.55.12-5.23-.59-10.19-1.57-15.15-3.65l2.03-4.34c4.53,1.87,9.18,3.16,14.17,3.47l1.87-3.78-6.76-5.91-5.83-5.74-7.97.54-9.12.11-.82,3.13c3.54,2.96,7.33,5.2,11.56,7.19l-2.2,4.37c-3.14-1.54-6.32-3.09-9.19-5.27l-4.99-3.79c.13-1.75.34-3.31.01-4.97-1.02-5.1-5.55-7.88-10.67-7.68-1.13.04-1.67-.45-2.29-1.29-3.04-4.15-5.29-8.65-7.21-13.38l4.49-1.88c1.9,4.49,3.76,8.44,6.62,12.41l4.12-1.12c-.68-5.43-.93-10.65-.34-16.06-3.98-3.66-7.49-7.42-10.6-11.9l-3.46,1.85c.44,4.22,1.4,8.08,2.86,12.14l-4.64,1.91c-1.64-4.04-2.73-8.07-3.34-12.39l-.06-2.53,2.21-2.01c1.78-1.61,2.66-4.07,2.69-6.59.04-3.66-2.11-6.68-5-8.84.45-5.14,1.49-10.89,3.73-15.61l4.37,1.79c-1.1,3.42-1.92,6.45-2.47,9.83l-.27,3.82,3.39,1.35c3.42-3.74,6.93-7.09,10.81-10.34l-.36-2.38c-.74-4.93-.66-9.76-.73-14.88l-3.69-1.15c-2.25,3.56-4.17,7.08-5.81,11.08l-4.55-1.73c1.78-4.5,3.95-8.64,6.69-12.6,1.49-2.16,4.02-.71,7.66-2.51,2.62-1.29,4.59-3.62,5.02-6.55l.34-4.33c.34-.55,1.13-1.26,1.74-1.72,4.11-3.1,8.34-5.75,12.88-8.18l2.3,4.49c-4.32,2.22-8.24,4.71-12.18,7.45l.98,4.3,10.39.55,6.06.46c3.13-3.89,6.42-7.46,10.06-10.88l3.32-3.12-2.07-3.55c-4.82.62-9.31,1.84-13.95,3.59l-2.11-4.26c5.2-2.2,10.49-3.67,16.08-4.51,1.08-.16,2.2.35,2.87,1.14,3.7,4.35,10.02,4.7,14.24.87l1.42-1.29c.48-.44,1.27-.8,2.02-.69,5.66.8,11,2.28,16.34,4.39l-2.09,4.41c-4.62-1.85-9.13-3-14.1-3.67l-2.11,3.84c4.92,4.18,9.23,8.7,13.33,13.73l10.35-.74,5.4-.19c.28-.01,1.08-.19,1.14-.5l.75-3.96c-4.02-2.99-8.03-5.32-12.27-7.6l2.27-4.23c4.9,2.57,9.42,5.26,13.64,8.66.82.66,1.4,1.58,1.3,2.67-.55,5.77,3.8,10.42,9.61,10.5.73.01,2.11.06,2.57.71,2.94,4.19,5.15,8.63,7.05,13.4l-4.21,1.61c-1.8-3.92-3.63-7.6-6.09-11.14l-3.57,1.16-.09,5.74c-.06,3.89-.39,7.67-.93,11.53l5.53,4.9,2.7,2.5,2.68,2.86,3.43-1.58c-.36-4.57-1.49-8.94-2.99-13.33,1.53-.75,2.98-1.29,4.63-1.75,1.99,4.97,3.13,10.05,3.65,15.32l-2.66,2.74c-1.51,1.55-2.36,3.8-2.42,6.01-.1,3.74,1.91,6.87,4.92,8.92.09,1.91-.19,3.64-.56,5.45-.67,3.34-1.54,6.4-2.92,9.58l-4.46-1.84c1.41-4.08,2.38-7.74,2.83-12.03l-3.42-1.86-3.75,4.59c-2.13,2.6-4.36,4.97-6.96,7.15.45,5.35.31,10.5-.32,16.02l3.98,1.15c2.98-3.88,4.91-8.1,6.73-12.47l4.45,1.94c-1.82,4.87-4.14,9.39-7.21,13.57-.28.38-.89.95-1.29.99l-3.81.38c-4.09.41-7.05,3.55-7.79,7.53-.3,1.63-.14,3.22,0,4.94-4.37,3.66-9.03,6.63-14.33,9.05l-2.22-4.35c4.16-2.06,8.04-4.28,11.66-7.35-.03-1.05-.22-1.99-.57-3.08-5.74.08-11.26-.13-17.14-.63l-5.7,5.64-1.76,1.55-5.3,4.42,1.87,3.78c4.97-.54,9.6-1.74,14.26-3.52l2.1,4.48c-5.19,2.1-10.45,3.17-15.94,3.64-1.14.1-2.06-.13-2.85-1.12ZM176.54,422.98c2.12.88,3.93,1.79,5.79,3.12,2.36-1.45,4.65-2.88,6.7-4.71l5.74-5.12c-4.31-.78-8.27-1.58-12.32-2.88l.43-1.42c4.63,1.35,9.03,2.26,13.68,2.57,2.92-3.1,5.44-6.16,7.68-9.63l1.39.81c-1.85,3.36-4.02,6.02-6.47,9.01,5.18.19,10-.33,14.84-.99-.35-2.65.24-5.19,2.17-6.86,1.57-1.35,3.58-1.65,5.62-1.78.97-4.76,1.51-9.42,1.35-14.25-2.99,2.42-5.88,4.65-9.27,6.44l-.76-1.29c3.63-2.28,6.88-4.76,9.96-7.57-.44-4.56-1.45-8.74-2.87-13.03l1.71-.35c1.31,3.91,2.4,7.6,2.97,11.71,3.17-3.54,5.93-7.3,8.72-11.18l-4.28-5.96c1.09-2.25,2.3-3.99,4.08-5.74l-5.51-6.53-3.34-3.52c-.79,3.53-1.6,6.68-2.91,10.06l-1.55-.44c1.26-3.81,2.27-7.35,2.8-11.15-3.26-2.86-6.54-5.33-10.12-7.64l.87-1.34,5.44,3.54,4.15,3.22.29-4.81c.22-3.66-.27-7.24-.61-10.91l-2.82-.51c-2.65-.48-4.61-2.46-5.04-5.09l-.42-2.58-8.08-.71c-2.45-.22-4.86-.02-7.21.16,2.52,3.26,4.43,6.41,6.31,9.8l-1.51.58c-2.12-3.64-4.31-6.93-6.78-10.27-5.04.69-9.57,1.81-14.41,3.23l-.36-1.46c4.45-1.37,8.65-2.44,13.31-3.14-3.98-4.48-8.48-8.91-13.36-12.2-4.72,3.63-7.25,3.38-11.92-.17-4.96,3.73-9.34,7.77-13.44,12.29,4.74.84,9.09,1.75,13.38,3.3l-.45,1.36c-4.78-1.4-9.44-2.59-14.47-3.25-2.61,3.33-4.75,6.64-6.85,10.28l-1.31-.65c1.83-3.36,3.68-6.41,5.97-9.66-4.95-.58-9.96-.21-14.93.53l-.4,2.59c-.35,2.27-1.93,4.04-4.11,4.79-1.23.42-2.44.53-3.83.74l-.42,4.34c-.28,2.93-.3,5.76-.04,8.69l.24,2.68c3.02-2.39,5.99-4.59,9.12-6.64l1.03,1.17c-3.39,2.43-6.71,4.96-10.06,7.73.42,2.79,1.04,5.27,1.82,7.88l.99,3.33-1.62.3c-1.17-3.33-2.01-6.39-2.75-9.81l-3.13,3.25-2.58,3.03-3.09,3.8,2.5,2.9,1.67,2.79c-1.24,2.08-2.61,3.82-4.3,5.7,1.97,2.94,4.02,5.8,6.32,8.51l2.31,2.73c.77-4.09,1.73-7.93,2.99-11.78l1.6.51c-1.21,4.34-2.28,8.71-2.75,13.19,3.18,2.89,6.4,5.19,9.96,7.37l-.84,1.39c-3.31-2-6.15-4.01-9.15-6.4l-.02,4.25c.19,3.31.76,6.54,1.35,9.8,1.29.21,2.42.39,3.57.81,3.44,1.26,4.5,4.54,4.12,8l8.46.77,6.72.23c-2.52-3.24-4.69-6.02-6.47-9.35l1.55-.65c2.26,3.6,4.67,6.73,7.52,9.87,4.64-.55,9.05-1.34,13.57-2.69l.26,1.49c-4.03,1.18-8,2.04-12.1,2.71,3.81,3.8,7.84,6.96,12.33,9.74l5.76-2.98ZM176.57,435.07c-3.63,0-6.57,2.94-6.57,6.57s2.94,6.57,6.57,6.57,6.57-2.94,6.57-6.57-2.94-6.57-6.57-6.57ZM176.71,288.94c-3.61,0-6.54,2.93-6.54,6.54s2.93,6.54,6.54,6.54,6.54-2.93,6.54-6.54-2.93-6.54-6.54-6.54ZM103.49,362.82c-3.59,0-6.5,2.91-6.5,6.5s2.91,6.5,6.5,6.5,6.5-2.91,6.5-6.5-2.91-6.5-6.5-6.5ZM123.68,413.68c-3.56,0-6.45,2.89-6.45,6.45s2.89,6.45,6.45,6.45,6.45-2.89,6.45-6.45-2.89-6.45-6.45-6.45ZM249.6,362.89c-3.56,0-6.45,2.89-6.45,6.45s2.89,6.45,6.45,6.45,6.45-2.89,6.45-6.45-2.89-6.45-6.45-6.45ZM229.46,413.71c-3.55,0-6.42,2.88-6.42,6.42s2.88,6.42,6.42,6.42,6.42-2.88,6.42-6.42-2.88-6.42-6.42-6.42ZM122.86,312.42c-3.44,0-6.23,2.79-6.23,6.23s2.79,6.23,6.23,6.23,6.23-2.79,6.23-6.23-2.79-6.23-6.23-6.23ZM230.33,312.44c-3.44,0-6.22,2.78-6.22,6.22s2.78,6.22,6.22,6.22,6.22-2.78,6.22-6.22-2.78-6.22-6.22-6.22ZM183.38,379.51c-.37-2.59-.37-5.04.46-7.45.61-1.78,1.55-3.44,2.79-4.87l4.72-5.44c3.47-4,7.08-7.62,10.39-11.98l-8.87,5.02-8.64,4.41c-3.2,1.63-6.97,2.69-10.43,1.87-3.88-.92-7.3-2.64-10.74-4.57l-12.05-6.76,4.86,5.66,3.19,3.43,2.67,2.93c2.11,2.31,4.06,4.62,5.82,7.21s2.6,5.35,2.29,8.37c-.29,2.84-.73,5.5-1.47,8.26-1.16,4.85-2.63,9.4-4.39,14.33,4.48-2.84,7.8-6.68,10.42-10.99l2.19-5.01c2.39,6.98,6.14,11.73,12.32,16.06-2.45-6.61-4.52-13.4-5.54-20.5ZM176.63,345.56c-3.77,0-6.82,3.05-6.82,6.82s3.05,6.82,6.82,6.82,6.82-3.05,6.82-6.82-3.05-6.82-6.82-6.82ZM145.13,394.92c-2.44,0-4.42,1.98-4.42,4.42s1.98,4.42,4.42,4.42,4.42-1.98,4.42-4.42-1.98-4.42-4.42-4.42ZM208,394.92c-2.42,0-4.38,1.96-4.38,4.38s1.96,4.38,4.38,4.38,4.38-1.96,4.38-4.38-1.96-4.38-4.38-4.38ZM134.47,365.14c-2.39,0-4.34,1.94-4.34,4.34s1.94,4.34,4.34,4.34,4.34-1.94,4.34-4.34-1.94-4.34-4.34-4.34ZM176.63,325.64c-2.36,0-4.28,1.92-4.28,4.28s1.92,4.28,4.28,4.28,4.28-1.92,4.28-4.28-1.92-4.28-4.28-4.28ZM218.56,365.2c-2.36,0-4.27,1.91-4.27,4.27s1.91,4.27,4.27,4.27,4.27-1.91,4.27-4.27-1.91-4.27-4.27-4.27ZM176.64,406.51c-2.31,0-4.18,1.87-4.18,4.18s1.87,4.18,4.18,4.18,4.18-1.87,4.18-4.18-1.87-4.18-4.18-4.18ZM208.13,336.74c-2.3,0-4.16,1.86-4.16,4.16s1.86,4.16,4.16,4.16,4.16-1.86,4.16-4.16-1.86-4.16-4.16-4.16ZM144.95,336.77c-2.27,0-4.12,1.84-4.12,4.12s1.84,4.12,4.12,4.12,4.12-1.84,4.12-4.12-1.84-4.12-4.12-4.12ZM140.38,386.62c-1.44-3.78-2.43-7.54-3.38-11.49l-1.58.36c1.25,6.53,3.22,12.53,6.28,18.32l1.56-.84-2.87-6.36ZM217.62,375.41l-1.58-.24c-1.5,6.3-3.4,12.11-6.39,17.74l1.6.76c3.11-5.92,5.16-11.87,6.36-18.26ZM202.54,402.94l-.75-1.35-3.69,1.74c-5.02,2.36-10.06,4.19-15.54,5.36l.34,1.45c7.03-1.42,13.41-3.83,19.65-7.2ZM151.7,401.5c-.45.37-.75.86-.9,1.34,6.23,3.37,12.59,5.87,19.37,7.27.16-.59.25-1,.19-1.53-6.73-1.57-12.73-3.85-18.65-7.09ZM170.17,330.71c-7.01,1.73-13.45,4.13-19.65,7.7l.9,1.31c6.07-3.51,12.32-5.9,19.08-7.53l-.33-1.48ZM202.51,338.48c-6.04-3.65-12.73-6.13-19.5-7.77l-.46,1.43c6.52,1.63,13.21,3.97,19.13,7.59l.83-1.25ZM217.57,363.25c-1.43-5.99-3.57-11.62-6.48-17.13l-1.47.77c2.74,5.49,4.88,10.91,6.24,16.81l1.7-.46ZM143.23,346.94c-.37-.37-.93-.63-1.4-.57-2.88,5.38-4.89,10.94-6.27,16.82l1.66.56c1.3-5.93,3.4-11.33,6.02-16.81Z"/>
  </g>
  <g>
    <rect class="cls-2" x="15.65" y="679.76" width="924.65" height="366.63" rx="12.29" ry="12.29"/>
    <g>
      <path d="M353.35,723.94h-5.95v3.84h6.65v3h-10.32v-16.18h9.98v3h-6.31v3.36h5.95v2.98Z"/>
      <path d="M363.81,714.6v16.18h-3.67v-16.18h3.67Z"/>
      <path d="M379.1,730.78l-1.46-2.93c-.6-1.13-.98-1.97-1.44-2.9h-.05c-.34.94-.74,1.78-1.25,2.9l-1.34,2.93h-4.18l4.68-8.18-4.51-7.99h4.2l1.42,2.95c.48.98.84,1.78,1.22,2.69h.05c.38-1.03.7-1.75,1.1-2.69l1.37-2.95h4.18l-4.56,7.9,4.8,8.28h-4.22Z"/>
      <path d="M402.79,722.52c0,5.3-3.22,8.52-7.94,8.52s-7.61-3.62-7.61-8.23c0-4.85,3.1-8.47,7.87-8.47s7.68,3.72,7.68,8.18ZM391.1,722.74c0,3.17,1.49,5.4,3.94,5.4s3.89-2.35,3.89-5.5c0-2.9-1.39-5.4-3.91-5.4s-3.91,2.35-3.91,5.5Z"/>
      <path d="M408.91,727.01c.98.5,2.5,1.01,4.06,1.01,1.68,0,2.57-.7,2.57-1.75s-.77-1.58-2.71-2.28c-2.69-.94-4.44-2.42-4.44-4.78,0-2.76,2.3-4.87,6.12-4.87,1.82,0,3.17.38,4.13.82l-.82,2.95c-.65-.31-1.8-.77-3.38-.77s-2.35.72-2.35,1.56c0,1.03.91,1.49,3,2.28,2.86,1.06,4.2,2.54,4.2,4.82,0,2.71-2.09,5.02-6.53,5.02-1.85,0-3.67-.48-4.58-.98l.74-3.02Z"/>
      <path d="M445.68,730.32c-.67.34-2.18.7-4.15.7-5.59,0-8.47-3.48-8.47-8.09,0-5.52,3.94-8.59,8.83-8.59,1.9,0,3.34.38,3.98.72l-.74,2.9c-.74-.31-1.78-.6-3.07-.6-2.9,0-5.16,1.75-5.16,5.35,0,3.24,1.92,5.28,5.18,5.28,1.1,0,2.33-.24,3.05-.53l.55,2.86Z"/>
      <path d="M465.76,722.52c0,5.3-3.22,8.52-7.94,8.52s-7.61-3.62-7.61-8.23c0-4.85,3.1-8.47,7.87-8.47s7.68,3.72,7.68,8.18ZM454.08,722.74c0,3.17,1.49,5.4,3.94,5.4s3.89-2.35,3.89-5.5c0-2.9-1.39-5.4-3.91-5.4s-3.91,2.35-3.91,5.5Z"/>
      <path d="M471.76,730.78v-16.18h4.27l3.36,5.93c.96,1.7,1.92,3.72,2.64,5.54h.07c-.24-2.14-.31-4.32-.31-6.74v-4.73h3.36v16.18h-3.84l-3.46-6.24c-.96-1.73-2.02-3.82-2.81-5.71l-.07.02c.1,2.14.14,4.42.14,7.06v4.87h-3.36Z"/>
      <path d="M503.8,730.32c-.67.34-2.18.7-4.15.7-5.59,0-8.47-3.48-8.47-8.09,0-5.52,3.94-8.59,8.83-8.59,1.9,0,3.34.38,3.98.72l-.74,2.9c-.74-.31-1.78-.6-3.07-.6-2.9,0-5.16,1.75-5.16,5.35,0,3.24,1.92,5.28,5.18,5.28,1.1,0,2.33-.24,3.05-.53l.55,2.86Z"/>
      <path d="M519.43,723.94h-5.95v3.84h6.65v3h-10.32v-16.18h9.98v3h-6.31v3.36h5.95v2.98Z"/>
      <path d="M529.89,714.6v16.18h-3.67v-16.18h3.67Z"/>
      <path d="M539.78,717.67h-4.34v-3.07h12.43v3.07h-4.42v13.1h-3.67v-13.1Z"/>
      <path d="M557.06,714.6v9.31c0,2.78,1.06,4.2,2.93,4.2s2.98-1.34,2.98-4.2v-9.31h3.65v9.07c0,4.99-2.52,7.37-6.74,7.37s-6.48-2.26-6.48-7.42v-9.02h3.67Z"/>
      <path d="M576.43,726.63l-1.15,4.15h-3.79l4.94-16.18h4.8l5.02,16.18h-3.94l-1.25-4.15h-4.63ZM580.53,723.89l-1.01-3.43c-.29-.96-.58-2.16-.82-3.12h-.05c-.24.96-.48,2.18-.74,3.12l-.96,3.43h3.58Z"/>
      <path d="M595.67,714.6v16.18h-3.67v-16.18h3.67Z"/>
      <path d="M602.56,727.01c.98.5,2.5,1.01,4.06,1.01,1.68,0,2.57-.7,2.57-1.75s-.77-1.58-2.71-2.28c-2.69-.94-4.44-2.42-4.44-4.78,0-2.76,2.3-4.87,6.12-4.87,1.82,0,3.17.38,4.13.82l-.82,2.95c-.65-.31-1.8-.77-3.38-.77s-2.35.72-2.35,1.56c0,1.03.91,1.49,3,2.28,2.86,1.06,4.2,2.54,4.2,4.82,0,2.71-2.09,5.02-6.53,5.02-1.85,0-3.67-.48-4.58-.98l.74-3.02Z"/>
    </g>
    <g>
      <g>
        <circle id="Elipse_17" data-name="Elipse 17" class="cls-6" cx="614.75" cy="859.19" r="76.5"/>
        <g id="Fator_humano_e_orgânico" data-name="Fator humano e orgânico" class="cls-7">
          <g class="cls-7">
            <path class="cls-11" d="M515.41,956.83h13.15v3.97h-8.45v4.83h7.23v3.97h-7.23v8.1h-4.7v-20.86Z"/>
            <path class="cls-11" d="M529.84,973.27c0-3.39,2.66-5.18,8.93-5.82-.1-1.38-.8-2.24-2.5-2.24-1.34,0-2.66.48-4.22,1.38l-1.66-3.07c2.02-1.25,4.29-2.08,6.78-2.08,4.06,0,6.3,2.3,6.3,7.2v9.06h-3.84l-.32-1.63h-.13c-1.38,1.18-2.82,2.02-4.61,2.02-2.91,0-4.74-2.11-4.74-4.8ZM538.77,973.08v-2.69c-3.33.45-4.42,1.31-4.42,2.53,0,.99.7,1.47,1.79,1.47s1.82-.48,2.62-1.31Z"/>
            <path class="cls-11" d="M547.51,971.9v-6.4h-2.18v-3.49l2.43-.19.54-4.86h3.9v4.86h3.81v3.68h-3.81v6.34c0,1.79.8,2.53,2.05,2.53.51,0,1.06-.06,1.5-.26l.77,3.3c-.83.35-2.05.64-3.55.64-3.94,0-5.47-2.46-5.47-6.14Z"/>
            <path class="cls-11" d="M557.62,969.75c0-5.28,3.71-8.32,7.74-8.32s7.71,3.04,7.71,8.32-3.71,8.32-7.71,8.32-7.74-3.04-7.74-8.32ZM568.27,969.75c0-2.75-.99-4.51-2.91-4.51s-2.91,1.76-2.91,4.51.96,4.51,2.91,4.51,2.91-1.76,2.91-4.51Z"/>
            <path class="cls-11" d="M576.31,961.82h3.84l.32,2.78h.13c1.15-2.14,2.88-3.17,4.51-3.17.9,0,1.44.13,1.89.32l-.9,4c-.54-.13-.93-.19-1.6-.19-1.18,0-2.66.77-3.49,2.91v9.21h-4.7v-15.87Z"/>
            <path class="cls-11" d="M595.44,955.26h4.7v5.5l-.22,2.85c1.18-1.06,2.75-2.18,4.9-2.18,3.46,0,4.93,2.43,4.93,6.4v9.86h-4.7v-9.25c0-2.3-.61-3.01-1.95-3.01-1.18,0-1.92.54-2.94,1.54v10.72h-4.7v-22.43Z"/>
            <path class="cls-11" d="M613.55,971.67v-9.86h4.7v9.25c0,2.27.61,3.01,1.98,3.01,1.18,0,1.89-.51,2.82-1.76v-10.5h4.7v15.87h-3.84l-.35-2.21h-.1c-1.34,1.6-2.82,2.59-4.99,2.59-3.46,0-4.93-2.43-4.93-6.4Z"/>
            <path class="cls-11" d="M631.89,961.82h3.84l.32,2.05h.13c1.31-1.31,2.72-2.43,4.8-2.43,2.24,0,3.58.96,4.38,2.66,1.41-1.44,2.88-2.66,4.99-2.66,3.42,0,4.96,2.43,4.96,6.4v9.86h-4.7v-9.25c0-2.3-.61-3.01-1.95-3.01-.8,0-1.7.51-2.72,1.54v10.72h-4.7v-9.25c0-2.3-.61-3.01-1.95-3.01-.77,0-1.7.51-2.69,1.54v10.72h-4.7v-15.87Z"/>
            <path class="cls-11" d="M658.58,973.27c0-3.39,2.66-5.18,8.93-5.82-.1-1.38-.8-2.24-2.5-2.24-1.34,0-2.66.48-4.22,1.38l-1.66-3.07c2.02-1.25,4.29-2.08,6.78-2.08,4.06,0,6.3,2.3,6.3,7.2v9.06h-3.84l-.32-1.63h-.13c-1.38,1.18-2.82,2.02-4.61,2.02-2.91,0-4.74-2.11-4.74-4.8ZM667.5,973.08v-2.69c-3.33.45-4.42,1.31-4.42,2.53,0,.99.7,1.47,1.79,1.47s1.82-.48,2.62-1.31Z"/>
            <path class="cls-11" d="M676.18,961.82h3.84l.32,2.02h.13c1.34-1.28,2.94-2.4,5.09-2.4,3.46,0,4.93,2.43,4.93,6.4v9.86h-4.7v-9.25c0-2.3-.61-3.01-1.95-3.01-1.18,0-1.92.54-2.94,1.54v10.72h-4.7v-15.87Z"/>
            <path class="cls-11" d="M693.55,969.75c0-5.28,3.71-8.32,7.74-8.32s7.71,3.04,7.71,8.32-3.71,8.32-7.71,8.32-7.74-3.04-7.74-8.32ZM704.21,969.75c0-2.75-.99-4.51-2.91-4.51s-2.91,1.76-2.91,4.51.96,4.51,2.91,4.51,2.91-1.76,2.91-4.51Z"/>
          </g>
          <g class="cls-7">
            <path class="cls-11" d="M539.99,999.75c0-5.15,3.68-8.32,7.49-8.32,4.54,0,6.75,3.3,6.75,7.62,0,.83-.1,1.66-.19,2.14h-9.47c.51,2.46,2.3,3.26,4.1,3.26,1.18,0,2.34-.35,3.46-1.02l1.54,2.88c-1.6,1.12-3.74,1.76-5.63,1.76-4.54,0-8.03-3.04-8.03-8.32ZM544.56,997.93h5.63c0-1.66-.74-2.88-2.62-2.88-1.25,0-2.59.7-3.01,2.88Z"/>
            <path class="cls-11" d="M562.96,999.75c0-5.28,3.71-8.32,7.74-8.32s7.71,3.04,7.71,8.32-3.71,8.32-7.71,8.32-7.74-3.04-7.74-8.32ZM573.62,999.75c0-2.75-.99-4.51-2.91-4.51s-2.91,1.76-2.91,4.51.96,4.51,2.91,4.51,2.91-1.76,2.91-4.51Z"/>
            <path class="cls-11" d="M581.65,991.82h3.84l.32,2.78h.13c1.15-2.14,2.88-3.17,4.51-3.17.9,0,1.44.13,1.89.32l-.9,4c-.54-.13-.93-.19-1.6-.19-1.18,0-2.66.77-3.49,2.91v9.21h-4.7v-15.87Z"/>
            <path class="cls-11" d="M593.07,1010.41c0-1.31.8-2.37,2.27-3.2v-.13c-.83-.54-1.47-1.38-1.47-2.69,0-1.15.77-2.27,1.79-2.98v-.13c-1.12-.77-2.14-2.27-2.14-4.13,0-3.81,3.14-5.73,6.56-5.73.9,0,1.76.13,2.46.38h5.79v3.42h-2.66v.13c.42.54.64,1.22.64,2.02,0,3.58-2.75,5.28-6.24,5.28-.58,0-1.22-.1-1.92-.32-.42.35-.58.64-.58,1.18,0,.8.64,1.18,2.4,1.18h2.56c3.9,0,6.05,1.18,6.05,4.03,0,3.3-3.42,5.7-8.86,5.7-3.71,0-6.66-1.22-6.66-4.03ZM604.11,1009.54c0-.99-.86-1.25-2.43-1.25h-1.63c-1.09,0-1.73-.06-2.24-.19-.58.51-.86.99-.86,1.57,0,1.18,1.41,1.82,3.52,1.82s3.65-.86,3.65-1.95ZM602.26,997.16c0-1.7-.93-2.56-2.18-2.56s-2.18.86-2.18,2.56.93,2.66,2.18,2.66,2.18-.9,2.18-2.66Z"/>
            <path class="cls-11" d="M609.81,1003.27c0-3.39,2.66-5.18,8.93-5.82-.1-1.38-.8-2.24-2.5-2.24-1.34,0-2.66.48-4.22,1.38l-1.66-3.07c2.02-1.25,4.29-2.08,6.78-2.08,4.06,0,6.3,2.3,6.3,7.2v9.06h-3.84l-.32-1.63h-.13c-1.38,1.18-2.82,2.02-4.61,2.02-2.91,0-4.74-2.11-4.74-4.8ZM615.12,983.59h4.35l4.19,5.86h-3.58l-2.72-2.75h-.13l-2.72,2.75h-3.58l4.19-5.86ZM618.74,1003.08v-2.69c-3.33.45-4.42,1.31-4.42,2.53,0,.99.7,1.47,1.79,1.47s1.82-.48,2.62-1.31Z"/>
            <path class="cls-11" d="M627.41,991.82h3.84l.32,2.02h.13c1.34-1.28,2.94-2.4,5.09-2.4,3.46,0,4.93,2.43,4.93,6.4v9.86h-4.7v-9.25c0-2.3-.61-3.01-1.95-3.01-1.18,0-1.92.54-2.94,1.54v10.72h-4.7v-15.87Z"/>
            <path class="cls-11" d="M645.39,987.02c0-1.47,1.09-2.46,2.66-2.46s2.66.99,2.66,2.46-1.09,2.46-2.66,2.46-2.66-.96-2.66-2.46ZM645.71,991.82h4.7v15.87h-4.7v-15.87Z"/>
            <path class="cls-11" d="M653.62,999.75c0-5.28,3.87-8.32,8.26-8.32,1.95,0,3.52.67,4.64,1.7l-2.21,2.91c-.58-.48-1.22-.8-2.14-.8-2.21,0-3.71,1.76-3.71,4.51s1.5,4.51,3.58,4.51c1.06,0,2.02-.38,2.82-1.06l1.86,2.91c-1.31,1.22-3.2,1.95-5.15,1.95-4.51,0-7.94-3.04-7.94-8.32Z"/>
            <path class="cls-11" d="M667.66,999.75c0-5.28,3.71-8.32,7.74-8.32s7.71,3.04,7.71,8.32-3.71,8.32-7.71,8.32-7.74-3.04-7.74-8.32ZM678.32,999.75c0-2.75-.99-4.51-2.91-4.51s-2.91,1.76-2.91,4.51.96,4.51,2.91,4.51,2.91-1.76,2.91-4.51Z"/>
          </g>
        </g>
        <g id="Grupo_167" data-name="Grupo 167">
          <g class="cls-12">
            <g id="Grupo_166" data-name="Grupo 166">
              <path id="Caminho_1412" data-name="Caminho 1412" class="cls-9" d="M613.61,863.72c-4.65,2.03-9.19,6.48-12.59,10.27,10.01,5.15,23.71,3.76,32.46-3.02-4.61-5.02-13.38-9.92-19.88-7.24h0Z"/>
              <path id="Caminho_1413" data-name="Caminho 1413" class="cls-9" d="M627.32,830.72c.58,1.66,2.11,2.94,2.64,4.83.94,3.09-.82,5.8-.89,8.62.22,2.22,1.59,4.16,3.61,5.1,4.35,2.09,8.9,1.55,13.35,1.25.29-1.7.44-3.42.45-5.15,0-9.72-4.47-18.89-12.1-24.89-2.49,2.81-7.93,6.31-7.07,10.23Z"/>
              <path id="Caminho_1414" data-name="Caminho 1414" class="cls-9" d="M598.06,872.37c1.84-2.28,3.9-4.37,6.15-6.24,6.47-6.43,14.61-8.7,23.45-3.83,3.1,1.76,5.93,3.96,8.41,6.52,4.4-3.99,7.59-9.14,9.21-14.86-7.25.87-18.98-.25-19.56-9.71-.17-2.57,1.59-5.42,1.02-7.74-.59-1.65-2.1-2.93-2.64-4.82-1.22-3.96,1.69-7.47,4.35-10.08,1.05-1.04,2.1-2.06,3.16-3.1-7.23-4.6-16.04-6.04-24.36-3.97.02,2.41.47,4.79,1.34,7.04.97,2.57,1.49,5.29,1.55,8.04-.13,4.6-2.69,8.66-4.76,11.94-.94,1.66-2.13,3.16-3.55,4.45-1.71,1.52-4.05,2.14-6.29,1.65-2.33-.55-3.66-2.55-5.62-3.36-1.97-.7-4.74,1.01-6.92,1.99.31,10.67,5.96,20.47,15.04,26.07h0Z"/>
              <path id="Caminho_1415" data-name="Caminho 1415" class="cls-9" d="M591,841.14c2.13.64,3.48,2.64,5.38,3.3,2.7.58,4.87-2.46,6.17-4.66,1.94-3.08,4.15-6.57,4.26-10.25.05-4.68-2.82-9.08-2.91-13.96-11.58,4.2-19.68,14.72-20.79,26.98,2.37-1.14,5.05-2.37,7.89-1.4h0Z"/>
              <path id="Caminho_1416" data-name="Caminho 1416" class="cls-9" d="M593.04,883.79h-3.39c1.11-1.43,1.72-3.2,1.72-5.01.03-4.61-3.68-8.38-8.29-8.41-4.61-.03-8.38,3.68-8.41,8.29-.02,2.49,1.07,4.85,2.97,6.45-3.87,2.01-6.31,6.01-6.31,10.38v10.02c0,.92.75,1.67,1.67,1.67h16.71c.92,0,1.67-.75,1.67-1.67v-10.02c0-.45.18-.88.52-1.19.3-.32.72-.49,1.15-.48,8.29,0,15.55-5.56,17.72-13.56-3.34-.34-6.61-1.2-9.69-2.54-1.01,3.6-4.3,6.08-8.03,6.08h0Z"/>
              <path id="Caminho_1417" data-name="Caminho 1417" class="cls-9" d="M651.87,885.11c3.53-2.97,3.99-8.24,1.03-11.78-2.97-3.53-8.24-3.99-11.78-1.03-3.42,2.87-3.98,7.93-1.26,11.48h-3.39c-3.75,0-7.03-2.5-8.05-6.1-.85.37-1.7.68-2.59.97-2.31.76-4.69,1.28-7.1,1.55,2.16,8.02,9.44,13.6,17.74,13.6.45,0,.88.18,1.19.52.32.3.49.72.49,1.15v10.02c0,.92.75,1.67,1.67,1.67h16.71c.92,0,1.67-.75,1.67-1.67v-10.02c0-4.36-2.44-8.36-6.31-10.37Z"/>
            </g>
          </g>
        </g>
      </g>
      <g>
        <circle id="Elipse_15" data-name="Elipse 15" class="cls-6" cx="345.64" cy="859.19" r="76.5"/>
        <g id="Rede_de_apoio_e_saúde" data-name="Rede de apoio e saúde" class="cls-7">
          <g class="cls-7">
            <path class="cls-11" d="M245.88,956.83h7.52c4.42,0,8.03,1.54,8.03,6.5,0,3.07-1.47,5.02-3.71,6.02l4.74,8.35h-5.28l-4-7.52h-2.59v7.52h-4.7v-20.86ZM253.02,966.42c2.46,0,3.81-1.06,3.81-3.1s-1.34-2.75-3.81-2.75h-2.43v5.86h2.43Z"/>
            <path class="cls-11" d="M263.87,969.75c0-5.15,3.68-8.32,7.49-8.32,4.54,0,6.75,3.3,6.75,7.62,0,.83-.1,1.66-.19,2.14h-9.47c.51,2.46,2.3,3.26,4.1,3.26,1.18,0,2.34-.35,3.46-1.02l1.54,2.88c-1.6,1.12-3.74,1.76-5.63,1.76-4.54,0-8.03-3.04-8.03-8.32ZM268.44,967.93h5.63c0-1.66-.74-2.88-2.62-2.88-1.25,0-2.59.7-3.01,2.88Z"/>
            <path class="cls-11" d="M280.54,969.75c0-5.18,3.23-8.32,6.59-8.32,1.76,0,2.82.64,3.9,1.66l-.19-2.43v-5.41h4.7v22.43h-3.84l-.32-1.57h-.13c-1.12,1.12-2.69,1.95-4.22,1.95-3.94,0-6.5-3.14-6.5-8.32ZM290.84,972.79v-6.5c-.83-.77-1.76-1.02-2.62-1.02-1.5,0-2.85,1.41-2.85,4.42s1.06,4.54,2.88,4.54c1.02,0,1.82-.38,2.59-1.44Z"/>
            <path class="cls-11" d="M298.78,969.75c0-5.15,3.68-8.32,7.49-8.32,4.54,0,6.75,3.3,6.75,7.62,0,.83-.1,1.66-.19,2.14h-9.47c.51,2.46,2.3,3.26,4.1,3.26,1.18,0,2.34-.35,3.46-1.02l1.54,2.88c-1.6,1.12-3.74,1.76-5.63,1.76-4.54,0-8.03-3.04-8.03-8.32ZM303.36,967.93h5.63c0-1.66-.74-2.88-2.62-2.88-1.25,0-2.59.7-3.01,2.88Z"/>
            <path class="cls-11" d="M321.85,969.75c0-5.18,3.23-8.32,6.59-8.32,1.76,0,2.82.64,3.9,1.66l-.19-2.43v-5.41h4.7v22.43h-3.84l-.32-1.57h-.13c-1.12,1.12-2.69,1.95-4.22,1.95-3.94,0-6.5-3.14-6.5-8.32ZM332.15,972.79v-6.5c-.83-.77-1.76-1.02-2.62-1.02-1.5,0-2.85,1.41-2.85,4.42s1.06,4.54,2.88,4.54c1.02,0,1.82-.38,2.59-1.44Z"/>
            <path class="cls-11" d="M340.09,969.75c0-5.15,3.68-8.32,7.49-8.32,4.54,0,6.75,3.3,6.75,7.62,0,.83-.1,1.66-.19,2.14h-9.47c.51,2.46,2.3,3.26,4.1,3.26,1.18,0,2.34-.35,3.46-1.02l1.54,2.88c-1.6,1.12-3.74,1.76-5.63,1.76-4.54,0-8.03-3.04-8.03-8.32ZM344.67,967.93h5.63c0-1.66-.74-2.88-2.62-2.88-1.25,0-2.59.7-3.01,2.88Z"/>
            <path class="cls-11" d="M363.26,973.27c0-3.39,2.66-5.18,8.93-5.82-.1-1.38-.8-2.24-2.5-2.24-1.34,0-2.66.48-4.22,1.38l-1.66-3.07c2.02-1.25,4.29-2.08,6.78-2.08,4.06,0,6.3,2.3,6.3,7.2v9.06h-3.84l-.32-1.63h-.13c-1.38,1.18-2.82,2.02-4.61,2.02-2.91,0-4.74-2.11-4.74-4.8ZM372.19,973.08v-2.69c-3.33.45-4.42,1.31-4.42,2.53,0,.99.7,1.47,1.79,1.47s1.82-.48,2.62-1.31Z"/>
            <path class="cls-11" d="M380.86,961.82h3.84l.32,1.57h.13c1.25-1.12,2.85-1.95,4.51-1.95,3.84,0,6.21,3.17,6.21,8.06,0,5.44-3.26,8.58-6.69,8.58-1.38,0-2.66-.61-3.78-1.66l.16,2.53v4.64h-4.7v-21.76ZM391.03,969.56c0-2.85-.86-4.29-2.75-4.29-.96,0-1.79.45-2.72,1.44v6.5c.83.77,1.73,1.02,2.53,1.02,1.63,0,2.94-1.41,2.94-4.67Z"/>
            <path class="cls-11" d="M398.27,969.75c0-5.28,3.71-8.32,7.74-8.32s7.71,3.04,7.71,8.32-3.71,8.32-7.71,8.32-7.74-3.04-7.74-8.32ZM408.92,969.75c0-2.75-.99-4.51-2.91-4.51s-2.91,1.76-2.91,4.51.96,4.51,2.91,4.51,2.91-1.76,2.91-4.51Z"/>
            <path class="cls-11" d="M416.63,957.02c0-1.47,1.09-2.46,2.66-2.46s2.66.99,2.66,2.46-1.09,2.46-2.66,2.46-2.66-.96-2.66-2.46ZM416.95,961.82h4.7v15.87h-4.7v-15.87Z"/>
            <path class="cls-11" d="M424.86,969.75c0-5.28,3.71-8.32,7.74-8.32s7.71,3.04,7.71,8.32-3.71,8.32-7.71,8.32-7.74-3.04-7.74-8.32ZM435.51,969.75c0-2.75-.99-4.51-2.91-4.51s-2.91,1.76-2.91,4.51.96,4.51,2.91,4.51,2.91-1.76,2.91-4.51Z"/>
          </g>
          <g class="cls-7">
            <path class="cls-11" d="M290.04,999.75c0-5.15,3.68-8.32,7.49-8.32,4.54,0,6.75,3.3,6.75,7.62,0,.83-.1,1.66-.19,2.14h-9.47c.51,2.46,2.3,3.26,4.1,3.26,1.18,0,2.34-.35,3.46-1.02l1.54,2.88c-1.6,1.12-3.74,1.76-5.63,1.76-4.54,0-8.03-3.04-8.03-8.32ZM294.62,997.93h5.63c0-1.66-.74-2.88-2.62-2.88-1.25,0-2.59.7-3.01,2.88Z"/>
            <path class="cls-11" d="M312.54,1005.7l1.98-2.66c1.44,1.15,2.91,1.54,4.22,1.54,1.41,0,2.02-.51,2.02-1.34,0-1.06-1.41-1.47-3.1-2.11-2.27-.83-4.26-2.27-4.26-4.74,0-2.94,2.43-4.96,6.08-4.96,2.3,0,4.26.83,5.6,2.02l-2.02,2.62c-1.15-.83-2.3-1.15-3.42-1.15-1.25,0-1.82.51-1.82,1.25,0,.93.93,1.31,2.94,1.95,2.43.8,4.38,2.21,4.38,4.83,0,2.88-2.27,5.12-6.53,5.12-2.11,0-4.48-.83-6.08-2.37Z"/>
            <path class="cls-11" d="M327.39,1003.27c0-3.39,2.66-5.18,8.93-5.82-.1-1.38-.8-2.24-2.5-2.24-1.34,0-2.66.48-4.22,1.38l-1.66-3.07c2.02-1.25,4.29-2.08,6.78-2.08,4.06,0,6.3,2.3,6.3,7.2v9.06h-3.84l-.32-1.63h-.13c-1.38,1.18-2.82,2.02-4.61,2.02-2.91,0-4.74-2.11-4.74-4.8ZM336.32,1003.08v-2.69c-3.33.45-4.42,1.31-4.42,2.53,0,.99.7,1.47,1.79,1.47s1.82-.48,2.62-1.31Z"/>
            <path class="cls-11" d="M344.83,1001.67v-9.86h4.7v9.25c0,2.27.61,3.01,1.98,3.01,1.18,0,1.89-.51,2.82-1.76v-10.5h4.7v15.87h-3.84l-.35-2.21h-.1c-1.34,1.6-2.82,2.59-4.99,2.59-3.46,0-4.93-2.43-4.93-6.4ZM352.95,983.59h4.96l.26.51-5.31,5.34h-3.58l3.68-5.86Z"/>
            <path class="cls-11" d="M362.33,999.75c0-5.18,3.23-8.32,6.59-8.32,1.76,0,2.82.64,3.9,1.66l-.19-2.43v-5.41h4.7v22.43h-3.84l-.32-1.57h-.13c-1.12,1.12-2.69,1.95-4.22,1.95-3.94,0-6.5-3.14-6.5-8.32ZM372.63,1002.79v-6.5c-.83-.77-1.76-1.02-2.62-1.02-1.5,0-2.85,1.41-2.85,4.42s1.06,4.54,2.88,4.54c1.02,0,1.82-.38,2.59-1.44Z"/>
            <path class="cls-11" d="M380.57,999.75c0-5.15,3.68-8.32,7.49-8.32,4.54,0,6.75,3.3,6.75,7.62,0,.83-.1,1.66-.19,2.14h-9.47c.51,2.46,2.3,3.26,4.1,3.26,1.18,0,2.34-.35,3.46-1.02l1.54,2.88c-1.6,1.12-3.74,1.76-5.63,1.76-4.54,0-8.03-3.04-8.03-8.32ZM385.15,997.93h5.63c0-1.66-.74-2.88-2.62-2.88-1.25,0-2.59.7-3.01,2.88Z"/>
          </g>
        </g>
        <g id="Grupo_192" data-name="Grupo 192">
          <g class="cls-8">
            <g id="Grupo_191" data-name="Grupo 191">
              <path id="Caminho_1551" data-name="Caminho 1551" class="cls-9" d="M372.22,851.59c4.36-4.03,10.19,2.14,5.99,6.42l-10.4,10.41c-1-3.1-3.86-5.21-7.12-5.27l11.55-11.57-.02.02ZM296.84,885.88l21.3,21.3,9.53-9.53-21.3-21.3-9.53,9.53ZM393.28,853.81c-1.81-2.24-5.11-2.59-7.35-.78-.14.12-.28.24-.41.37l-17.11,17.11c-.1.09-.21.16-.33.21-.17,3.91-3.38,7-7.29,7.02h-14.08c-.53,0-.96-.43-.96-.96,0-.53.43-.96.96-.96h14.08c2.97,0,5.36-2.41,5.36-5.38,0-2.9-2.32-5.28-5.22-5.36l-27.52-1.97c-10.23-.95-18.05,6.32-23.92,13.61l17.62,17.62,3.71-3.62c.18-.18.41-.27.66-.27h28.79c1.95,0,3.82-.76,5.19-2.14l27.27-27.28c2.03-1.9,2.3-5.03.62-7.25l-.06.02ZM346.24,859.87c.37.36.95.36,1.32,0l21.45-22.7c11.57-12.83-5.31-32.07-18.52-19.43l-3.6,3.79-3.6-3.79c-13.19-12.64-30.07,6.59-18.5,19.43l21.45,22.7h-.01Z"/>
            </g>
          </g>
        </g>
      </g>
    </g>
  </g>
</svg>