<?xml version="1.0" encoding="UTF-8"?>
<svg id="Camada_7" data-name="Camada 7" xmlns="http://www.w3.org/2000/svg" xmlns:xlink="http://www.w3.org/1999/xlink" viewBox="0 0 157.92 206.36">
  <defs>
    <style>
      .cls-1 {
        fill: none;
      }

      .cls-2 {
        clip-path: url(#clippath-1);
      }

      .cls-3 {
        fill: #fff;
      }

      .cls-4 {
        clip-path: url(#clippath);
      }
    </style>
    <clipPath id="clippath">
      <rect class="cls-1" width="157.92" height="206.36"/>
    </clipPath>
    <clipPath id="clippath-1">
      <rect class="cls-1" x="44" y="40.76" width="70" height="70.01"/>
    </clipPath>
  </defs>
  <g id="Grupo_49" data-name="Grupo 49">
    <g class="cls-4">
      <g id="Grupo_47" data-name="Grupo 47">
        <path id="Caminho_237" data-name="Caminho 237" class="cls-3" d="M138.1,27.05c-12.6-13.91-28.06-22.77-46.67-25.95-4.07-.61-8.17-.98-12.28-1.1-21.97.43-42.84,9.67-57.92,25.65C7.01,40.77-.61,60.92.04,81.67c.43,15.87,6.3,28.83,13.21,42.76,2.29,4.09,4.69,8.12,7.19,12.09,14.26,20.76,30.18,40.33,47.62,58.5l6.71,7.09c1.33,1.5,2.74,2.91,4.23,4.25l.06-.16c1.11-.94,3.06-3.1,4.12-4.23l7.96-8.54c5.24-5.63,10.37-11.36,15.39-17.19,10.97-12.51,21.65-25.47,30.66-39.47,1.28-1.93,2.51-3.81,3.69-5.81,1.23-2.07,2.37-4.37,3.72-6.33,7.77-14.56,12.39-24.83,13.22-41.64,1.02-20.51-6.06-40.6-19.73-55.94M79.71,131.13c-30.04,0-54.38-24.35-54.38-54.39,0-30.04,24.35-54.38,54.39-54.38,30.04,0,54.38,24.35,54.38,54.38s-24.35,54.38-54.38,54.38h0"/>
      </g>
    </g>
  </g>
  <g class="cls-2">
    <g id="Grupo_58" data-name="Grupo 58">
      <path id="Caminho_250" data-name="Caminho 250" class="cls-3" d="M109.46,45.3c-6.05-6.05-15.85-6.05-21.9,0l-8.5,8.5c-4.82,4.82-5.92,12.23-2.72,18.25l-1.07,1.07c-6.02-3.21-13.42-2.1-18.25,2.72l-8.5,8.5c-5.97,6.13-5.84,15.93.29,21.9,6.01,5.86,15.6,5.86,21.61,0l8.5-8.5c4.81-4.83,5.91-12.23,2.71-18.24l1.08-1.08c6.02,3.21,13.42,2.1,18.25-2.72l8.5-8.5c6.05-6.05,6.05-15.85,0-21.9M72.55,91.36l-8.5,8.5c-2.49,2.56-6.59,2.61-9.15.12-2.56-2.49-2.61-6.59-.12-9.15.04-.04.08-.08.12-.12l8.5-8.5c1.21-1.22,2.86-1.9,4.58-1.9.03,0,.06,0,.09,0l-3.39,3.39c-1.79,1.73-1.84,4.58-.1,6.37,1.73,1.79,4.58,1.84,6.37.1.04-.03.07-.07.1-.1l3.39-3.38c.03,1.75-.65,3.43-1.89,4.66M103.09,60.82l-8.5,8.5c-1.21,1.22-2.86,1.9-4.58,1.89-.03,0-.06,0-.09,0l4.45-4.45c1.8-1.72,1.86-4.58.13-6.37-1.72-1.8-4.58-1.86-6.37-.13-.04.04-.09.09-.13.13l-4.45,4.45s0-.06,0-.09c0-1.72.68-3.37,1.9-4.58l8.5-8.5c2.55-2.51,6.64-2.48,9.15.06,2.49,2.52,2.49,6.57,0,9.09"/>
    </g>
  </g>
</svg>