<?xml version="1.0" encoding="UTF-8"?>
<svg id="Camada_7" data-name="Camada 7" xmlns="http://www.w3.org/2000/svg" xmlns:xlink="http://www.w3.org/1999/xlink" viewBox="0 0 157.92 206.36">
  <defs>
    <style>
      .cls-1 {
        fill: none;
      }

      .cls-2 {
        clip-path: url(#clippath-1);
      }

      .cls-3 {
        fill: #fff;
      }

      .cls-4 {
        clip-path: url(#clippath);
      }
    </style>
    <clipPath id="clippath">
      <rect class="cls-1" width="157.92" height="206.36"/>
    </clipPath>
    <clipPath id="clippath-1">
      <rect class="cls-1" x="49" y="54.76" width="60" height="47.77"/>
    </clipPath>
  </defs>
  <g class="cls-4">
    <g id="Grupo_47" data-name="Grupo 47">
      <path id="Caminho_237" data-name="Caminho 237" class="cls-3" d="M138.1,27.05c-12.6-13.91-28.06-22.77-46.67-25.95-4.07-.61-8.17-.98-12.28-1.1-21.97.43-42.84,9.67-57.92,25.65C7.01,40.77-.61,60.92.04,81.67c.43,15.87,6.3,28.83,13.21,42.76,2.29,4.09,4.69,8.12,7.19,12.09,14.26,20.76,30.18,40.33,47.62,58.5l6.71,7.09c1.33,1.5,2.74,2.91,4.23,4.25l.06-.16c1.11-.94,3.06-3.1,4.12-4.23l7.96-8.54c5.24-5.63,10.37-11.36,15.39-17.19,10.97-12.51,21.65-25.47,30.66-39.47,1.28-1.93,2.51-3.81,3.69-5.81,1.23-2.07,2.37-4.37,3.72-6.33,7.77-14.56,12.39-24.83,13.22-41.64,1.02-20.51-6.06-40.6-19.73-55.94M79.71,131.13c-30.04,0-54.38-24.35-54.38-54.39,0-30.04,24.35-54.38,54.39-54.38,30.04,0,54.38,24.35,54.38,54.38s-24.35,54.38-54.38,54.38h0"/>
    </g>
  </g>
  <g class="cls-2">
    <g id="Grupo_64-2" data-name="Grupo 64-2">
      <path id="Caminho_258" data-name="Caminho 258" class="cls-3" d="M93.38,67.26c-1.17-1.13-3.04-1.11-4.17.06s-1.11,3.04.06,4.17c3.91,3.72,4.06,9.91.34,13.83-.11.11-.22.23-.34.34-1.17,1.11-1.22,2.96-.11,4.13.01.02.03.03.04.04.56.59,1.34.91,2.15.88.78,0,1.52-.29,2.09-.82,3.1-2.97,4.84-7.09,4.81-11.38-.07-4.25-1.82-8.29-4.87-11.25"/>
      <path id="Caminho_259" data-name="Caminho 259" class="cls-3" d="M100.15,58.79c-1.22-1.08-3.09-.97-4.17.25-1.08,1.22-.97,3.09.25,4.17,8.52,7.63,9.24,20.73,1.61,29.25-.51.56-1.04,1.1-1.61,1.61-1.21,1.09-1.32,2.95-.25,4.17.56.63,1.37,1,2.21,1.01.72,0,1.42-.27,1.96-.76,5.63-5.06,8.85-12.28,8.85-19.85.06-7.58-3.17-14.82-8.85-19.85"/>
      <path id="Caminho_260" data-name="Caminho 260" class="cls-3" d="M79.35,55.13l-17.89,13.34h-10.68c-.98,0-1.77.79-1.77,1.76,0,0,0,0,0,0v16.75c0,.98.79,1.77,1.76,1.77,0,0,0,0,0,0h10.68l17.89,13.4c.78.59,1.89.44,2.48-.33.25-.32.37-.72.36-1.12v-44.19c-.01-.98-.81-1.76-1.79-1.75-.38,0-.75.13-1.05.36"/>
    </g>
  </g>
</svg>