<?xml version="1.0" encoding="UTF-8"?>
<svg id="Camada_7" data-name="Camada 7" xmlns="http://www.w3.org/2000/svg" xmlns:xlink="http://www.w3.org/1999/xlink" viewBox="0 0 157.92 206.36">
  <defs>
    <style>
      .cls-1 {
        fill: none;
      }

      .cls-2 {
        clip-path: url(#clippath-1);
      }

      .cls-3 {
        fill: #fff;
      }

      .cls-4 {
        clip-path: url(#clippath);
      }
    </style>
    <clipPath id="clippath">
      <rect class="cls-1" width="157.92" height="206.36"/>
    </clipPath>
    <clipPath id="clippath-1">
      <rect class="cls-1" x="39" y="39.76" width="80.01" height="68"/>
    </clipPath>
  </defs>
  <g id="Grupo_49" data-name="Grupo 49">
    <g class="cls-4">
      <g id="Grupo_47" data-name="Grupo 47">
        <path id="Caminho_237" data-name="Caminho 237" class="cls-3" d="M138.1,27.05c-12.6-13.91-28.06-22.77-46.67-25.95-4.07-.61-8.17-.98-12.28-1.1-21.97.43-42.84,9.67-57.92,25.65C7.01,40.77-.61,60.92.04,81.67c.43,15.87,6.3,28.83,13.21,42.76,2.29,4.09,4.69,8.12,7.19,12.09,14.26,20.76,30.18,40.33,47.62,58.5l6.71,7.09c1.33,1.5,2.74,2.91,4.23,4.25l.06-.16c1.11-.94,3.06-3.1,4.12-4.23l7.96-8.54c5.24-5.63,10.37-11.36,15.39-17.19,10.97-12.51,21.65-25.47,30.66-39.47,1.28-1.93,2.51-3.81,3.69-5.81,1.23-2.07,2.37-4.37,3.72-6.33,7.77-14.56,12.39-24.83,13.22-41.64,1.02-20.51-6.06-40.6-19.73-55.94M79.71,131.13c-30.04,0-54.38-24.35-54.38-54.39,0-30.04,24.35-54.38,54.39-54.38,30.04,0,54.38,24.35,54.38,54.38s-24.35,54.38-54.38,54.38h0"/>
      </g>
    </g>
  </g>
  <g id="Grupo_59" data-name="Grupo 59">
    <g class="cls-2">
      <g id="Grupo_59-2" data-name="Grupo 59-2">
        <path id="Caminho_251" data-name="Caminho 251" class="cls-3" d="M106.3,51.44h-19.65c-.59-1.8-1.8-3.34-3.41-4.34v-2.92c.04-2.23-1.61-4.13-3.83-4.41-2.33-.23-4.41,1.48-4.64,3.81-.01.14-.02.28-.02.42v3.1c-1.61,1-2.82,2.53-3.41,4.34h-19.65l-12.69,21.99v1.04c0,7.81,6.33,14.14,14.14,14.14s14.14-6.33,14.14-14.14v-1.04l-9.8-16.98h13.88c.59,1.8,1.8,3.34,3.41,4.34v25.66c0,7.89-6.39,14.28-14.28,14.28h-5.34c-1.02,0-1.85.83-1.85,1.85h0v3.33c0,1.02.83,1.85,1.85,1.85h47.74c1.02,0,1.85-.83,1.85-1.85h0v-3.33c0-1.02-.83-1.85-1.85-1.85h-5.34c-7.89,0-14.28-6.39-14.28-14.28h0v-25.66c1.61-1,2.82-2.53,3.41-4.34h13.88l-9.8,16.98v1.04c0,7.81,6.33,14.13,14.14,14.13,7.8,0,14.13-6.33,14.13-14.13v-1.04l-12.69-21.98h-.01ZM61.88,74.1h-17.5l8.75-15.15,8.75,15.15h0ZM104.86,58.94l8.75,15.15h-17.5l8.75-15.15Z"/>
      </g>
    </g>
  </g>
</svg>