<?xml version="1.0" encoding="UTF-8"?>
<svg id="Camada_7" data-name="Camada 7" xmlns="http://www.w3.org/2000/svg" xmlns:xlink="http://www.w3.org/1999/xlink" viewBox="0 0 157.92 206.36">
  <defs>
    <style>
      .cls-1 {
        fill: none;
      }

      .cls-2 {
        clip-path: url(#clippath-1);
      }

      .cls-3 {
        fill: #fff;
      }

      .cls-4 {
        clip-path: url(#clippath);
      }
    </style>
    <clipPath id="clippath">
      <rect class="cls-1" width="157.92" height="206.36"/>
    </clipPath>
    <clipPath id="clippath-1">
      <rect class="cls-1" x="54" y="37.76" width="50" height="75"/>
    </clipPath>
  </defs>
  <g id="Grupo_49" data-name="Grupo 49">
    <g class="cls-4">
      <g id="Grupo_47" data-name="Grupo 47">
        <path id="Caminho_237" data-name="Caminho 237" class="cls-3" d="M138.1,27.05c-12.6-13.91-28.06-22.77-46.67-25.95-4.07-.61-8.17-.98-12.28-1.1-21.97.43-42.84,9.67-57.92,25.65C7.01,40.77-.61,60.92.04,81.67c.43,15.87,6.3,28.83,13.21,42.76,2.29,4.09,4.69,8.12,7.19,12.09,14.26,20.76,30.18,40.33,47.62,58.5l6.71,7.09c1.33,1.5,2.74,2.91,4.23,4.25l.06-.16c1.11-.94,3.06-3.1,4.12-4.23l7.96-8.54c5.24-5.63,10.37-11.36,15.39-17.19,10.97-12.51,21.65-25.47,30.66-39.47,1.28-1.93,2.51-3.81,3.69-5.81,1.23-2.07,2.37-4.37,3.72-6.33,7.77-14.56,12.39-24.83,13.22-41.64,1.02-20.51-6.06-40.6-19.73-55.94M79.71,131.13c-30.04,0-54.38-24.35-54.38-54.39,0-30.04,24.35-54.38,54.39-54.38,30.04,0,54.38,24.35,54.38,54.38s-24.35,54.38-54.38,54.38h0"/>
      </g>
    </g>
  </g>
  <g id="Grupo_56" data-name="Grupo 56">
    <g class="cls-2">
      <g id="Grupo_56-2" data-name="Grupo 56-2">
        <path id="Caminho_249" data-name="Caminho 249" class="cls-3" d="M85.67,112.76h-13.33c-1.84,0-3.33-1.49-3.33-3.33s1.49-3.33,3.33-3.33h13.33c1.84,0,3.33,1.49,3.33,3.33s-1.49,3.33-3.33,3.33M88.17,100.26h-18.33c-1.84,0-3.33-1.49-3.33-3.33v-12.5c-11.96-6.9-16.07-22.19-9.17-34.16,6.9-11.96,22.19-16.07,34.16-9.17,7.74,4.46,12.51,12.72,12.51,21.66-.02,8.93-4.78,17.18-12.5,21.67v12.5c0,1.84-1.49,3.33-3.33,3.33"/>
      </g>
    </g>
  </g>
</svg>