<?xml version="1.0" encoding="UTF-8"?>
<svg id="Camada_7" data-name="Camada 7" xmlns="http://www.w3.org/2000/svg" xmlns:xlink="http://www.w3.org/1999/xlink" viewBox="0 0 157.92 206.36">
  <defs>
    <style>
      .cls-1 {
        fill: none;
      }

      .cls-2 {
        clip-path: url(#clippath-1);
      }

      .cls-3 {
        fill: #fff;
      }

      .cls-4 {
        clip-path: url(#clippath);
      }
    </style>
    <clipPath id="clippath">
      <rect class="cls-1" width="157.92" height="206.36"/>
    </clipPath>
    <clipPath id="clippath-1">
      <rect class="cls-1" x="48" y="44.2" width="60" height="59.98"/>
    </clipPath>
  </defs>
  <g id="Grupo_49" data-name="Grupo 49">
    <g class="cls-4">
      <g id="Grupo_47" data-name="Grupo 47">
        <path id="Caminho_237" data-name="Caminho 237" class="cls-3" d="M138.1,27.05c-12.6-13.91-28.06-22.77-46.67-25.95-4.07-.61-8.17-.98-12.28-1.1-21.97.43-42.84,9.67-57.92,25.65C7.01,40.77-.61,60.92.04,81.67c.43,15.87,6.3,28.83,13.21,42.76,2.29,4.09,4.69,8.12,7.19,12.09,14.26,20.76,30.18,40.33,47.62,58.5l6.71,7.09c1.33,1.5,2.74,2.91,4.23,4.25l.06-.16c1.11-.94,3.06-3.1,4.12-4.23l7.96-8.54c5.24-5.63,10.37-11.36,15.39-17.19,10.97-12.51,21.65-25.47,30.66-39.47,1.28-1.93,2.51-3.81,3.69-5.81,1.23-2.07,2.37-4.37,3.72-6.33,7.77-14.56,12.39-24.83,13.22-41.64,1.02-20.51-6.06-40.6-19.73-55.94M79.71,131.13c-30.04,0-54.38-24.35-54.38-54.39,0-30.04,24.35-54.38,54.39-54.38,30.04,0,54.38,24.35,54.38,54.38s-24.35,54.38-54.38,54.38h0"/>
      </g>
    </g>
  </g>
  <g id="Grupo_66" data-name="Grupo 66">
    <g class="cls-2">
      <g id="Grupo_65" data-name="Grupo 65">
        <path id="Caminho_261" data-name="Caminho 261" class="cls-3" d="M107.68,103.89c-.2.19-.47.3-.74.29-.09.01-.17.01-.26,0l-16.68-4.42.71-1.95,1.49-4.04,3.7-.91c.37-.09.66-.38.76-.76l.92-3.72,3.99-1.65,1.92-.8,4.48,16.97c.09.36-.02.74-.29.99ZM72.19,53.76l-8.27-8.27c-1.71-1.71-4.49-1.71-6.2,0l-8.43,8.44c-1.71,1.71-1.71,4.49,0,6.2l8.27,8.27.42-.42,13.82-13.8.39-.42ZM97.63,86.14l3.1-1.26.89-.36.62-.26.54-.23-29.12-28.81-1.46,1.42-2.55,2.55,27.98,26.96ZM63.02,65.86l-2.59,2.55-1.46,1.46,29.05,29.25.09-.27.5-1.32.2-.55,1.45-3.9-27.24-27.22ZM64.49,64.39l27.33,27.38,2.98-.73.89-3.62c.01-.05.03-.11.06-.15l-27.55-26.58-3.71,3.71Z"/>
      </g>
    </g>
  </g>
</svg>