<?xml version="1.0" encoding="UTF-8"?>
<svg id="Camada_7" data-name="Camada 7" xmlns="http://www.w3.org/2000/svg" xmlns:xlink="http://www.w3.org/1999/xlink" viewBox="0 0 157.92 206.36">
  <defs>
    <style>
      .cls-1 {
        fill: none;
      }

      .cls-2 {
        fill-rule: evenodd;
      }

      .cls-2, .cls-3 {
        fill: #fff;
      }

      .cls-4 {
        clip-path: url(#clippath-1);
      }

      .cls-5 {
        clip-path: url(#clippath);
      }
    </style>
    <clipPath id="clippath">
      <rect class="cls-1" width="157.92" height="206.36"/>
    </clipPath>
    <clipPath id="clippath-1">
      <rect class="cls-1" x="59.5" y="46.76" width="52.88" height="60"/>
    </clipPath>
  </defs>
  <g id="Grupo_49" data-name="Grupo 49">
    <g class="cls-5">
      <g id="Grupo_47" data-name="Grupo 47">
        <path id="Caminho_237" data-name="Caminho 237" class="cls-3" d="M138.1,27.05c-12.6-13.91-28.06-22.77-46.67-25.95-4.07-.61-8.17-.98-12.28-1.1-21.97.43-42.84,9.67-57.92,25.65C7.01,40.77-.61,60.92.04,81.67c.43,15.87,6.3,28.83,13.21,42.76,2.29,4.09,4.69,8.12,7.19,12.09,14.26,20.76,30.18,40.33,47.62,58.5l6.71,7.09c1.33,1.5,2.74,2.91,4.23,4.25l.06-.16c1.11-.94,3.06-3.1,4.12-4.23l7.96-8.54c5.24-5.63,10.37-11.36,15.39-17.19,10.97-12.51,21.65-25.47,30.66-39.47,1.28-1.93,2.51-3.81,3.69-5.81,1.23-2.07,2.37-4.37,3.72-6.33,7.77-14.56,12.39-24.83,13.22-41.64,1.02-20.51-6.06-40.6-19.73-55.94M79.71,131.13c-30.04,0-54.38-24.35-54.38-54.39,0-30.04,24.35-54.38,54.39-54.38,30.04,0,54.38,24.35,54.38,54.38s-24.35,54.38-54.38,54.38h0"/>
      </g>
    </g>
  </g>
  <g id="Grupo_62" data-name="Grupo 62">
    <g class="cls-4">
      <g id="Grupo_62-2" data-name="Grupo 62-2">
        <path id="Caminho_256" data-name="Caminho 256" class="cls-2" d="M59.5,101.88v-50.23c-.06-2.61,2-4.78,4.62-4.84.89-.02,1.76.21,2.52.66l43.34,25.11c2.31,1.35,3.09,4.32,1.74,6.64-.42.72-1.02,1.32-1.74,1.74l-43.34,25.11c-2.25,1.33-5.15.59-6.48-1.66-.45-.76-.68-1.64-.66-2.52"/>
      </g>
    </g>
  </g>
</svg>