<?xml version="1.0" encoding="UTF-8"?>
<svg id="Camada_7" data-name="Camada 7" xmlns="http://www.w3.org/2000/svg" xmlns:xlink="http://www.w3.org/1999/xlink" viewBox="0 0 157.92 206.36">
  <defs>
    <style>
      .cls-1 {
        fill: none;
      }

      .cls-2 {
        clip-path: url(#clippath-1);
      }

      .cls-3 {
        fill: #fff;
      }

      .cls-4 {
        clip-path: url(#clippath);
      }
    </style>
    <clipPath id="clippath">
      <rect class="cls-1" x="0" width="157.92" height="206.36"/>
    </clipPath>
    <clipPath id="clippath-1">
      <rect class="cls-1" x="44.31" y="37.68" width="66" height="74.45"/>
    </clipPath>
  </defs>
  <g id="Grupo_49" data-name="Grupo 49">
    <g class="cls-4">
      <g id="Grupo_47" data-name="Grupo 47">
        <path id="Caminho_237" data-name="Caminho 237" class="cls-3" d="M138.1,27.05c-12.6-13.91-28.06-22.77-46.67-25.95-4.07-.61-8.17-.98-12.28-1.1-21.97.43-42.84,9.67-57.92,25.65C7.01,40.77-.61,60.92.04,81.67c.43,15.87,6.3,28.83,13.21,42.76,2.29,4.09,4.69,8.12,7.19,12.09,14.26,20.76,30.18,40.33,47.62,58.5l6.71,7.09c1.33,1.5,2.74,2.91,4.23,4.25l.06-.16c1.11-.94,3.06-3.1,4.12-4.23l7.96-8.54c5.24-5.63,10.37-11.36,15.39-17.19,10.97-12.51,21.65-25.47,30.66-39.47,1.28-1.93,2.51-3.81,3.69-5.81,1.23-2.07,2.37-4.37,3.72-6.33,7.77-14.56,12.39-24.83,13.22-41.64,1.02-20.51-6.06-40.6-19.73-55.94M79.71,131.13c-30.04,0-54.38-24.35-54.38-54.39,0-30.04,24.35-54.38,54.39-54.38,30.04,0,54.38,24.35,54.38,54.38s-24.35,54.38-54.38,54.38h0"/>
      </g>
    </g>
  </g>
  <g id="Grupo_50" data-name="Grupo 50">
    <g class="cls-2">
      <g id="Grupo_52" data-name="Grupo 52">
        <path id="Caminho_245" data-name="Caminho 245" class="cls-3" d="M48.11,86.83l1.98.64v10.41c.01,4.42,3.6,7.99,8.01,7.99h8.02l1.25,3.97c.45,1.7,2.19,2.71,3.89,2.26,1.7-.45,2.71-2.19,2.26-3.89-.01-.05-.03-.11-.05-.16l-1.9-6.26c-.4-1.35-1.65-2.27-3.06-2.27h-10.42c-.92,0-1.67-.75-1.67-1.67h0v-12.7c0-1.37-.88-2.59-2.19-3.01l-3.29-1.04,5.21-11.7c.19-.43.29-.91.28-1.38-.09-8.25,4.09-15.95,11.06-20.36,3.79-2.42,8.2-3.68,12.7-3.64h.07c12.51.06,22.84,9.8,23.64,22.29.4,6.18-1.64,12.27-5.7,16.95-.6.7-1.02,1.53-1.24,2.43-.26,1.05-.23,2.14.07,3.17l5.06,16.87c.52,1.69,2.31,2.63,4,2.1,1.63-.51,2.58-2.21,2.14-3.87l-4.76-15.55c-.21-.72-.05-1.49.41-2.07,4.56-5.77,6.82-13.03,6.35-20.37-.98-15.86-14.08-28.23-29.97-28.3h-.08c-5.97-.04-11.82,1.73-16.77,5.07-8.24,5.54-13.22,14.77-13.33,24.7l-5.26,11.82c-.31.67-.49,1.4-.53,2.14-.07,2.45,1.48,4.65,3.8,5.42"/>
        <path id="Caminho_246" data-name="Caminho 246" class="cls-3" d="M97.61,67.79c-.01-9.64-7.84-17.45-17.48-17.43-1.55,0-3.08.21-4.58.62-5.41,1.43-9.77,5.43-11.68,10.69-.87,2.36.34,4.98,2.7,5.85.5.19,1.04.28,1.57.28h10.11c5.17,0,9.36,4.21,9.36,9.38,0,1.78,1.46,3.21,3.24,3.2.93,0,1.8-.41,2.41-1.1,2.8-3.17,4.34-7.25,4.34-11.48"/>
      </g>
    </g>
  </g>
</svg>